<svg xmlns="http://www.w3.org/2000/svg" width="816.073" height="303.225" viewBox="0 0 816.073 303.225"><defs><style>.a{fill:#d7b0a1;fill-rule:evenodd;opacity:0.2;}</style></defs><path class="a" d="M86.858,191.915a144.513,144.513,0,0,1-15.234-11.442,132.683,132.683,0,0,0-14.237-10.844c-4.657-2.794-8.715-4.391-12.507-4.391V156.59c6.12,0,11.842,2.528,17.031,5.721,5.256,3.193,10.378,7.451,15.234,11.442a133.1,133.1,0,0,0,14.3,10.844c4.59,2.861,8.715,4.391,12.44,4.391,3.459,0,7.384-1.53,11.908-4.391a147.581,147.581,0,0,0,14.037-10.777A124.709,124.709,0,0,1,145,162.311c5.189-3.193,10.91-5.721,16.964-5.721,6.12,0,11.775,2.528,16.964,5.721a143.724,143.724,0,0,1,14.9,11.509A139.211,139.211,0,0,0,207.8,184.6c4.524,2.861,8.582,4.391,12.307,4.391s7.85-1.53,12.44-4.391a140.447,140.447,0,0,0,14.17-10.777,159.43,159.43,0,0,1,14.9-11.509c5.056-3.193,10.644-5.721,16.565-5.721,6.054,0,11.842,2.528,17.031,5.721a129.419,129.419,0,0,1,15.1,11.509A156.487,156.487,0,0,0,324.355,184.6c4.524,2.861,8.449,4.391,11.908,4.391,3.792,0,7.85-1.53,12.507-4.391a132.685,132.685,0,0,0,14.237-10.844,144.557,144.557,0,0,1,15.234-11.442c5.189-3.193,10.977-5.721,17.031-5.721,5.921,0,11.509,2.528,16.565,5.721a159.447,159.447,0,0,1,14.9,11.509,140.445,140.445,0,0,0,14.17,10.777c4.59,2.861,8.715,4.391,12.44,4.391,3.792,0,7.784-1.53,12.307-4.391a139.215,139.215,0,0,0,13.97-10.777c4.79-3.992,9.779-8.249,14.968-11.509,5.122-3.193,10.777-5.721,16.9-5.721,6.054,0,11.775,2.528,16.964,5.721a124.713,124.713,0,0,1,15.168,11.509A147.561,147.561,0,0,0,557.661,184.6c4.524,2.861,8.449,4.391,11.908,4.391,3.725,0,7.85-1.53,12.44-4.391a133.116,133.116,0,0,0,14.3-10.844c4.856-3.991,9.979-8.249,15.234-11.442,5.189-3.193,10.91-5.721,17.031-5.721,5.854,0,11.442,2.528,16.5,5.721a151.959,151.959,0,0,1,14.968,11.509,140.423,140.423,0,0,0,14.17,10.777c4.59,2.861,8.715,4.391,12.44,4.391,3.459,0,7.384-1.53,11.908-4.391A147.576,147.576,0,0,0,712.6,173.82a124.712,124.712,0,0,1,15.168-11.509c5.189-3.193,10.91-5.721,16.964-5.721,6.12,0,11.775,2.528,16.9,5.721,5.189,3.26,10.178,7.517,14.968,11.509a139.215,139.215,0,0,0,13.97,10.777c4.524,2.861,8.515,4.391,12.307,4.391,3.725,0,7.784-1.53,12.44-4.391a140.446,140.446,0,0,0,14.17-10.777,159.414,159.414,0,0,1,14.9-11.509c5.056-3.193,10.644-5.721,16.565-5.721v8.648c-3.459,0-7.384,1.53-11.908,4.391a138.527,138.527,0,0,0-14.037,10.844c-4.856,3.992-9.912,8.249-15.168,11.442-5.189,3.26-10.91,5.721-16.964,5.721-6.12,0-11.775-2.461-16.964-5.721-5.123-3.193-10.178-7.517-14.9-11.509a139.182,139.182,0,0,0-13.971-10.777c-4.524-2.861-8.515-4.391-12.307-4.391-3.725,0-7.85,1.6-12.44,4.391a132.272,132.272,0,0,0-14.17,10.844,148.063,148.063,0,0,1-14.9,11.442c-5.056,3.193-10.644,5.721-16.565,5.721-6.12,0-11.842-2.461-17.031-5.721a136.535,136.535,0,0,1-15.1-11.442,146.346,146.346,0,0,0-14.037-10.844c-4.524-2.861-8.449-4.391-11.908-4.391-3.792,0-7.85,1.6-12.507,4.391a132.684,132.684,0,0,0-14.237,10.844A144.512,144.512,0,0,1,586.6,191.915c-5.189,3.26-10.977,5.721-17.031,5.721-5.921,0-11.509-2.528-16.565-5.721a148.078,148.078,0,0,1-14.9-11.442,132.27,132.27,0,0,0-14.17-10.844c-4.59-2.861-8.715-4.391-12.44-4.391s-7.784,1.53-12.307,4.391a139.188,139.188,0,0,0-13.97,10.777c-4.723,3.992-9.779,8.316-14.9,11.509-5.189,3.26-10.844,5.721-16.964,5.721-6.054,0-11.775-2.461-16.964-5.721a131.268,131.268,0,0,1-15.168-11.442,138.52,138.52,0,0,0-14.037-10.844c-4.524-2.861-8.449-4.391-11.908-4.391-3.725,0-7.85,1.6-12.44,4.391a133.085,133.085,0,0,0-14.3,10.844,144.512,144.512,0,0,1-15.234,11.442c-5.189,3.26-10.91,5.721-17.031,5.721-5.854,0-11.442-2.528-16.5-5.721A141.632,141.632,0,0,1,304.8,180.473a132.283,132.283,0,0,0-14.17-10.844c-4.59-2.794-8.715-4.391-12.44-4.391-3.459,0-7.384,1.53-11.908,4.391a138.518,138.518,0,0,0-14.037,10.844,131.265,131.265,0,0,1-15.168,11.442c-5.189,3.26-10.91,5.721-16.964,5.721-6.12,0-11.775-2.461-16.9-5.721-5.189-3.193-10.178-7.517-14.968-11.509a139.183,139.183,0,0,0-13.97-10.777c-4.524-2.861-8.515-4.391-12.307-4.391-3.725,0-7.85,1.6-12.44,4.391a132.281,132.281,0,0,0-14.17,10.844,148.076,148.076,0,0,1-14.9,11.442c-5.056,3.193-10.644,5.721-16.565,5.721C97.835,197.636,92.113,195.175,86.858,191.915Zm0,52.422c-5.189-3.193-10.311-7.451-15.234-11.442a123.471,123.471,0,0,0-14.237-10.777c-4.657-2.861-8.715-4.457-12.44-4.457v-8.648c6.054,0,11.775,2.528,16.964,5.721a130.729,130.729,0,0,1,15.234,11.509,141.277,141.277,0,0,0,14.3,10.777c4.59,2.861,8.715,4.391,12.44,4.391,3.526,0,7.384-1.53,11.908-4.391a147.565,147.565,0,0,0,14.037-10.777A137.913,137.913,0,0,1,145,214.734c5.189-3.193,10.91-5.721,17.031-5.721,6.054,0,11.775,2.528,16.9,5.721a143.718,143.718,0,0,1,14.9,11.509A130.008,130.008,0,0,0,207.8,237.02c4.524,2.861,8.582,4.391,12.307,4.391s7.85-1.53,12.44-4.391a140.433,140.433,0,0,0,14.17-10.777,159.422,159.422,0,0,1,14.9-11.509c5.056-3.193,10.644-5.721,16.565-5.721,6.12,0,11.842,2.528,17.031,5.721a137.2,137.2,0,0,1,15.1,11.509,156.47,156.47,0,0,0,14.037,10.777c4.524,2.861,8.449,4.391,11.908,4.391,3.792,0,7.85-1.53,12.507-4.391a140.839,140.839,0,0,0,14.237-10.777,143.02,143.02,0,0,1,15.234-11.509c5.189-3.193,10.977-5.721,17.031-5.721,5.921,0,11.509,2.528,16.565,5.721a159.439,159.439,0,0,1,14.9,11.509,140.431,140.431,0,0,0,14.17,10.777c4.657,2.861,8.715,4.391,12.44,4.391,3.792,0,7.784-1.53,12.307-4.391a123.747,123.747,0,0,0,13.97-10.777c4.79-3.992,9.779-8.249,14.968-11.509,5.122-3.193,10.777-5.721,16.9-5.721,6.054,0,11.775,2.528,16.964,5.721a131.888,131.888,0,0,1,15.168,11.509,147.545,147.545,0,0,0,14.037,10.777c4.524,2.861,8.449,4.391,11.908,4.391,3.725,0,7.85-1.53,12.507-4.391a148.74,148.74,0,0,0,14.237-10.777,136.594,136.594,0,0,1,15.234-11.509c5.189-3.193,10.91-5.721,17.031-5.721,5.921,0,11.509,2.528,16.565,5.721a159.442,159.442,0,0,1,14.9,11.509,140.41,140.41,0,0,0,14.17,10.777c4.59,2.861,8.715,4.391,12.44,4.391,3.459,0,7.384-1.53,11.908-4.391A147.56,147.56,0,0,0,712.6,226.243a131.887,131.887,0,0,1,15.168-11.509c5.189-3.193,10.91-5.721,16.964-5.721,6.12,0,11.775,2.528,16.964,5.721a143.715,143.715,0,0,1,14.9,11.509,130.011,130.011,0,0,0,13.97,10.777c4.524,2.861,8.582,4.391,12.307,4.391s7.85-1.53,12.44-4.391a140.432,140.432,0,0,0,14.17-10.777,159.406,159.406,0,0,1,14.9-11.509c5.056-3.193,10.644-5.721,16.565-5.721v8.648c-3.459,0-7.384,1.53-11.908,4.391A138.544,138.544,0,0,0,835.008,232.9a131.267,131.267,0,0,1-15.168,11.442c-5.189,3.26-10.91,5.721-16.964,5.721-6.12,0-11.775-2.461-16.9-5.721-5.189-3.193-10.178-7.451-14.968-11.509a139.2,139.2,0,0,0-13.971-10.777c-4.524-2.794-8.515-4.391-12.307-4.391-3.725,0-7.85,1.6-12.44,4.457a123.074,123.074,0,0,0-14.17,10.777,148.062,148.062,0,0,1-14.9,11.442c-5.056,3.193-10.644,5.721-16.565,5.721-6.054,0-11.842-2.461-17.031-5.721a136.535,136.535,0,0,1-15.1-11.442,138.53,138.53,0,0,0-14.037-10.844c-4.524-2.861-8.449-4.391-11.908-4.391-3.792,0-7.85,1.6-12.507,4.457A123.472,123.472,0,0,0,601.835,232.9,144.512,144.512,0,0,1,586.6,244.338c-5.189,3.26-10.91,5.721-17.031,5.721-5.921,0-11.509-2.528-16.565-5.721A148.078,148.078,0,0,1,538.1,232.9a123.073,123.073,0,0,0-14.17-10.777c-4.59-2.861-8.715-4.457-12.44-4.457s-7.784,1.6-12.307,4.391a139.207,139.207,0,0,0-13.97,10.777,127.433,127.433,0,0,1-14.9,11.509c-5.189,3.26-10.844,5.721-16.964,5.721-6.054,0-11.775-2.461-16.964-5.721-5.256-3.193-10.312-7.451-15.168-11.442a138.537,138.537,0,0,0-14.037-10.844c-4.524-2.861-8.449-4.391-11.908-4.391-3.725,0-7.85,1.6-12.44,4.457-4.657,2.794-9.314,6.653-14.3,10.777-4.856,3.992-9.979,8.249-15.234,11.442-5.189,3.26-10.91,5.721-17.031,5.721-5.854,0-11.442-2.528-16.5-5.721A141.632,141.632,0,0,1,304.8,232.9c-4.923-4.125-9.513-7.983-14.17-10.777-4.59-2.861-8.715-4.457-12.44-4.457-3.459,0-7.384,1.53-11.908,4.391A138.535,138.535,0,0,0,252.241,232.9a136.528,136.528,0,0,1-15.1,11.442c-5.189,3.26-10.977,5.721-17.031,5.721-6.12,0-11.775-2.461-16.9-5.721-5.189-3.193-10.178-7.451-14.968-11.509a138.8,138.8,0,0,0-13.9-10.777c-4.59-2.794-8.582-4.391-12.307-4.391-3.792,0-7.85,1.6-12.507,4.457a123.082,123.082,0,0,0-14.17,10.777,148.076,148.076,0,0,1-14.9,11.442c-5.056,3.193-10.644,5.721-16.565,5.721C97.835,250.059,92.113,247.6,86.858,244.338Zm0,52.489a163.4,163.4,0,0,1-15.234-11.509,131.587,131.587,0,0,0-14.237-10.777c-4.657-2.861-8.715-4.457-12.44-4.457v-8.648c6.054,0,11.775,2.528,16.964,5.721a138.624,138.624,0,0,1,15.234,11.509,141.265,141.265,0,0,0,14.3,10.777c4.59,2.861,8.715,4.391,12.44,4.391,3.526,0,7.384-1.53,11.908-4.391a137.3,137.3,0,0,0,14.037-10.777c4.856-3.992,9.912-8.249,15.168-11.509,5.189-3.193,10.91-5.721,17.031-5.721,6.054,0,11.775,2.528,16.9,5.721a143.709,143.709,0,0,1,14.9,11.509,130,130,0,0,0,13.97,10.777c4.524,2.861,8.582,4.391,12.307,4.391s7.85-1.53,12.44-4.391a140.421,140.421,0,0,0,14.17-10.777,148.091,148.091,0,0,1,14.9-11.442c5.056-3.26,10.644-5.788,16.565-5.788,6.12,0,11.842,2.528,17.031,5.721a145.986,145.986,0,0,1,15.1,11.509,144.974,144.974,0,0,0,14.037,10.777c4.524,2.861,8.449,4.391,11.908,4.391,3.792,0,7.85-1.53,12.507-4.391a140.827,140.827,0,0,0,14.237-10.777,152.531,152.531,0,0,1,15.234-11.509c5.189-3.193,10.977-5.721,17.031-5.721,5.921,0,11.509,2.528,16.565,5.721a159.428,159.428,0,0,1,14.9,11.509,140.42,140.42,0,0,0,14.17,10.777c4.657,2.861,8.715,4.391,12.44,4.391,3.792,0,7.784-1.53,12.307-4.391a123.738,123.738,0,0,0,13.97-10.777c4.79-3.992,9.779-8.249,14.968-11.509,5.122-3.193,10.777-5.721,16.9-5.721,6.054,0,11.775,2.528,16.964,5.721a139.95,139.95,0,0,1,15.168,11.509,137.286,137.286,0,0,0,14.037,10.777c4.524,2.861,8.449,4.391,11.908,4.391,3.725,0,7.85-1.53,12.507-4.391a148.727,148.727,0,0,0,14.237-10.777,145.241,145.241,0,0,1,15.234-11.509c5.189-3.193,10.91-5.721,17.031-5.721,5.921,0,11.509,2.528,16.565,5.721a159.43,159.43,0,0,1,14.9,11.509,140.4,140.4,0,0,0,14.17,10.777c4.59,2.861,8.715,4.391,12.44,4.391,3.459,0,7.384-1.53,11.908-4.391A137.3,137.3,0,0,0,712.6,278.665a139.949,139.949,0,0,1,15.168-11.509c5.189-3.193,10.91-5.721,16.964-5.721,6.12,0,11.775,2.528,16.964,5.721a143.705,143.705,0,0,1,14.9,11.509,130,130,0,0,0,13.97,10.777c4.524,2.861,8.582,4.391,12.307,4.391s7.85-1.53,12.44-4.391a140.42,140.42,0,0,0,14.17-10.777,159.394,159.394,0,0,1,14.9-11.509c5.056-3.193,10.644-5.721,16.565-5.721v8.648c-3.459,0-7.384,1.53-11.908,4.391a138.539,138.539,0,0,0-14.037,10.844A131.3,131.3,0,0,1,819.84,296.76c-5.189,3.26-10.91,5.721-16.964,5.721-6.12,0-11.775-2.461-16.9-5.721-5.189-3.193-10.178-7.451-14.968-11.509a139.206,139.206,0,0,0-13.971-10.777c-4.524-2.794-8.515-4.391-12.307-4.391-3.725,0-7.85,1.6-12.44,4.457a123.069,123.069,0,0,0-14.17,10.777,148.1,148.1,0,0,1-14.9,11.442c-5.056,3.193-10.644,5.721-16.565,5.721-6.054,0-11.842-2.461-17.031-5.721a136.571,136.571,0,0,1-15.1-11.442,138.526,138.526,0,0,0-14.037-10.844c-4.524-2.861-8.449-4.391-11.908-4.391-3.792,0-7.85,1.6-12.507,4.457a131.588,131.588,0,0,0-14.237,10.777A155.067,155.067,0,0,1,586.6,296.827c-5.189,3.193-10.91,5.655-17.031,5.655-5.921,0-11.509-2.528-16.565-5.721a148.12,148.12,0,0,1-14.9-11.442,123.067,123.067,0,0,0-14.17-10.777c-4.59-2.861-8.715-4.457-12.44-4.457s-7.784,1.6-12.307,4.391a131.121,131.121,0,0,0-13.97,10.844,134.453,134.453,0,0,1-14.9,11.442c-5.189,3.26-10.844,5.721-16.964,5.721-6.054,0-11.775-2.461-16.964-5.721-5.256-3.193-10.312-7.451-15.168-11.442a138.533,138.533,0,0,0-14.037-10.844c-4.524-2.861-8.449-4.391-11.908-4.391-3.725,0-7.85,1.6-12.44,4.457a131.991,131.991,0,0,0-14.3,10.777,147.542,147.542,0,0,1-15.234,11.509c-5.189,3.193-10.91,5.655-17.031,5.655-5.854,0-11.442-2.528-16.5-5.721A141.67,141.67,0,0,1,304.8,285.318c-4.923-4.125-9.513-7.983-14.17-10.777-4.59-2.861-8.715-4.457-12.44-4.457-3.459,0-7.384,1.53-11.908,4.391a138.531,138.531,0,0,0-14.037,10.844,136.564,136.564,0,0,1-15.1,11.442c-5.189,3.26-10.977,5.721-17.031,5.721-6.12,0-11.775-2.461-16.9-5.721-5.189-3.193-10.178-7.451-14.968-11.442a130.734,130.734,0,0,0-13.9-10.844c-4.59-2.794-8.582-4.391-12.307-4.391-3.792,0-7.85,1.6-12.507,4.457a123.077,123.077,0,0,0-14.17,10.777,148.118,148.118,0,0,1-14.9,11.442c-5.056,3.193-10.644,5.721-16.565,5.721C97.835,302.481,92.113,300.02,86.858,296.827Zm0,52.422A154.274,154.274,0,0,1,71.69,337.74a149.143,149.143,0,0,0-14.3-10.777c-4.59-2.861-8.715-4.457-12.44-4.457v-8.648c6.054,0,11.775,2.528,16.964,5.721a147.545,147.545,0,0,1,15.234,11.509,141.292,141.292,0,0,0,14.3,10.777c4.59,2.861,8.715,4.391,12.44,4.391,3.526,0,7.384-1.464,11.908-4.391a137.321,137.321,0,0,0,14.037-10.777A154.288,154.288,0,0,1,145,319.578c5.189-3.193,10.91-5.721,17.031-5.721,6.054,0,11.775,2.528,16.9,5.721a143.727,143.727,0,0,1,14.9,11.509,130.014,130.014,0,0,0,13.97,10.777c4.524,2.861,8.582,4.391,12.307,4.391s7.85-1.53,12.44-4.391a140.449,140.449,0,0,0,14.17-10.777,141.65,141.65,0,0,1,14.968-11.442c5.056-3.26,10.578-5.788,16.5-5.788,6.12,0,11.842,2.528,17.031,5.721a154.282,154.282,0,0,1,15.168,11.509,144.662,144.662,0,0,0,13.97,10.777c4.524,2.927,8.449,4.391,11.975,4.391,3.725,0,7.784-1.53,12.44-4.391a149.144,149.144,0,0,0,14.3-10.777,154.282,154.282,0,0,1,15.168-11.509c5.255-3.193,10.977-5.721,17.031-5.721,5.921,0,11.509,2.528,16.565,5.788a148.106,148.106,0,0,1,14.9,11.442,140.447,140.447,0,0,0,14.17,10.777c4.657,2.861,8.715,4.391,12.507,4.391,3.725,0,7.717-1.53,12.307-4.391a129.629,129.629,0,0,0,13.9-10.777,151.932,151.932,0,0,1,14.968-11.509c5.122-3.193,10.777-5.721,16.9-5.721,6.054,0,11.842,2.528,17.031,5.721a146.011,146.011,0,0,1,15.1,11.509,137.3,137.3,0,0,0,14.037,10.777c4.524,2.927,8.449,4.391,11.908,4.391,3.792,0,7.85-1.53,12.507-4.391a148.758,148.758,0,0,0,14.237-10.777,155.069,155.069,0,0,1,15.234-11.509c5.189-3.193,10.91-5.721,17.031-5.721,5.921,0,11.509,2.528,16.565,5.788a148.108,148.108,0,0,1,14.9,11.442,140.425,140.425,0,0,0,14.17,10.777c4.59,2.861,8.715,4.391,12.44,4.391,3.459,0,7.384-1.464,11.908-4.391A137.316,137.316,0,0,0,712.6,331.087a154.3,154.3,0,0,1,15.168-11.509c5.189-3.193,10.91-5.721,17.031-5.721,6.054,0,11.775,2.528,16.9,5.721a143.724,143.724,0,0,1,14.9,11.509,130.017,130.017,0,0,0,13.97,10.777c4.524,2.861,8.582,4.391,12.307,4.391s7.85-1.53,12.44-4.391a140.447,140.447,0,0,0,14.17-10.777,148.077,148.077,0,0,1,14.9-11.442c5.056-3.26,10.644-5.788,16.565-5.788v8.648c-3.459,0-7.384,1.53-11.908,4.391a138.516,138.516,0,0,0-14.037,10.844,139.952,139.952,0,0,1-15.168,11.509c-5.189,3.193-10.91,5.655-16.964,5.655-6.12,0-11.775-2.461-16.9-5.721-5.189-3.193-10.178-7.451-14.968-11.442-4.856-4.125-9.38-7.983-13.9-10.777-4.59-2.861-8.582-4.457-12.307-4.457-3.792,0-7.85,1.6-12.507,4.457a131.186,131.186,0,0,0-14.17,10.777,148.082,148.082,0,0,1-14.9,11.442c-5.056,3.193-10.644,5.721-16.565,5.721-6.054,0-11.842-2.461-17.031-5.655a146,146,0,0,1-15.1-11.509A138.5,138.5,0,0,0,640.486,326.9c-4.524-2.861-8.449-4.391-11.908-4.391-3.725,0-7.85,1.6-12.507,4.457a148.761,148.761,0,0,0-14.237,10.777A155.058,155.058,0,0,1,586.6,349.249c-5.189,3.193-10.91,5.655-17.031,5.655-5.921,0-11.509-2.528-16.565-5.721a148.1,148.1,0,0,1-14.9-11.442,131.185,131.185,0,0,0-14.17-10.777c-4.59-2.861-8.715-4.457-12.44-4.457s-7.784,1.6-12.307,4.457a121.945,121.945,0,0,0-13.97,10.777,134.434,134.434,0,0,1-14.9,11.442c-5.123,3.26-10.844,5.721-16.9,5.721-6.12,0-11.842-2.461-17.031-5.655a154.271,154.271,0,0,1-15.168-11.509A138.51,138.51,0,0,0,407.18,326.9c-4.524-2.861-8.382-4.391-11.908-4.391-3.725,0-7.85,1.6-12.44,4.457a141.284,141.284,0,0,0-14.3,10.777,147.534,147.534,0,0,1-15.234,11.509c-5.189,3.193-10.91,5.655-16.964,5.655-5.921,0-11.509-2.528-16.565-5.721A148.826,148.826,0,0,1,304.8,337.74a119.331,119.331,0,0,0-14.17-10.777c-4.59-2.861-8.648-4.457-12.44-4.457-3.459,0-7.384,1.53-11.908,4.391a138.508,138.508,0,0,0-14.037,10.844,145.994,145.994,0,0,1-15.1,11.509c-5.189,3.193-10.977,5.655-17.031,5.655-6.12,0-11.775-2.461-16.9-5.721a141.64,141.64,0,0,1-14.968-11.442c-4.856-4.125-9.38-7.983-13.9-10.777-4.59-2.861-8.582-4.457-12.307-4.457-3.792,0-7.85,1.6-12.507,4.457a131.2,131.2,0,0,0-14.17,10.777,148.1,148.1,0,0,1-14.9,11.442c-5.056,3.193-10.644,5.721-16.565,5.721C97.835,354.9,92.113,352.442,86.858,349.249Zm0,52.422A154.254,154.254,0,0,1,71.69,390.162a149.117,149.117,0,0,0-14.3-10.777c-4.59-2.861-8.715-4.457-12.44-4.457V366.28c6.054,0,11.775,2.528,16.964,5.721A147.548,147.548,0,0,1,77.145,383.51a141.281,141.281,0,0,0,14.3,10.777c4.59,2.861,8.715,4.391,12.44,4.391,3.526,0,7.384-1.464,11.908-4.324a138.519,138.519,0,0,0,14.037-10.844A154.292,154.292,0,0,1,145,372c5.189-3.193,10.91-5.721,17.031-5.721,6.054,0,11.775,2.528,16.9,5.788a134.454,134.454,0,0,1,14.9,11.442,121.951,121.951,0,0,0,13.97,10.777c4.524,2.861,8.582,4.391,12.307,4.391s7.85-1.53,12.44-4.391a131.188,131.188,0,0,0,14.17-10.777,141.662,141.662,0,0,1,14.968-11.442c5.056-3.193,10.578-5.788,16.5-5.788,6.12,0,11.842,2.528,17.031,5.721a154.285,154.285,0,0,1,15.168,11.509,146,146,0,0,0,13.97,10.844c4.524,2.861,8.449,4.324,11.975,4.324,3.725,0,7.784-1.53,12.44-4.391a149.131,149.131,0,0,0,14.3-10.777A154.285,154.285,0,0,1,378.241,372c5.255-3.193,10.977-5.721,17.031-5.721,5.921,0,11.509,2.595,16.565,5.788a148.119,148.119,0,0,1,14.9,11.442,131.186,131.186,0,0,0,14.17,10.777c4.657,2.861,8.715,4.391,12.507,4.391,3.725,0,7.717-1.53,12.307-4.391,4.524-2.794,9.047-6.653,13.9-10.777a141.652,141.652,0,0,1,14.968-11.442c5.122-3.26,10.777-5.788,16.9-5.788,6.054,0,11.842,2.528,17.031,5.721a146.014,146.014,0,0,1,15.1,11.509,138.5,138.5,0,0,0,14.037,10.844c4.524,2.861,8.449,4.324,11.908,4.324,3.792,0,7.85-1.53,12.507-4.391a148.745,148.745,0,0,0,14.237-10.777A155.072,155.072,0,0,1,611.547,372c5.189-3.193,10.91-5.721,17.031-5.721,5.921,0,11.509,2.595,16.565,5.788a148.121,148.121,0,0,1,14.9,11.442,131.167,131.167,0,0,0,14.17,10.777c4.59,2.861,8.715,4.391,12.44,4.391,3.459,0,7.384-1.464,11.908-4.324A138.514,138.514,0,0,0,712.6,383.51,154.3,154.3,0,0,1,727.768,372c5.189-3.193,10.91-5.721,17.031-5.721,6.054,0,11.775,2.528,16.9,5.788a134.451,134.451,0,0,1,14.9,11.442,121.953,121.953,0,0,0,13.97,10.777c4.524,2.861,8.582,4.391,12.307,4.391s7.85-1.53,12.44-4.391a131.187,131.187,0,0,0,14.17-10.777,148.09,148.09,0,0,1,14.9-11.442c5.056-3.193,10.644-5.788,16.565-5.788v8.648c-3.459,0-7.384,1.53-11.908,4.391a138.524,138.524,0,0,0-14.037,10.844,139.936,139.936,0,0,1-15.168,11.509c-5.189,3.193-10.91,5.655-16.964,5.655-6.12,0-11.775-2.461-16.9-5.721-5.189-3.193-10.178-7.451-14.968-11.442-4.856-4.125-9.38-7.983-13.9-10.777-4.59-2.861-8.582-4.457-12.307-4.457-3.792,0-7.85,1.6-12.507,4.457a131.174,131.174,0,0,0-14.17,10.777,148.073,148.073,0,0,1-14.9,11.442c-5.056,3.193-10.644,5.721-16.565,5.721-6.054,0-11.842-2.461-17.031-5.655a145.984,145.984,0,0,1-15.1-11.509,138.51,138.51,0,0,0-14.037-10.844c-4.524-2.861-8.449-4.391-11.908-4.391-3.725,0-7.85,1.6-12.507,4.457a148.735,148.735,0,0,0-14.237,10.777A155.038,155.038,0,0,1,586.6,401.671c-5.189,3.193-10.91,5.655-17.031,5.655-5.921,0-11.509-2.528-16.565-5.721a148.089,148.089,0,0,1-14.9-11.442,131.172,131.172,0,0,0-14.17-10.777c-4.59-2.861-8.715-4.457-12.44-4.457s-7.784,1.6-12.307,4.457a121.951,121.951,0,0,0-13.97,10.777,134.427,134.427,0,0,1-14.9,11.442c-5.123,3.26-10.844,5.721-16.9,5.721-6.12,0-11.842-2.461-17.031-5.655a154.252,154.252,0,0,1-15.168-11.509,138.517,138.517,0,0,0-14.037-10.844c-4.524-2.861-8.382-4.391-11.908-4.391-3.725,0-7.85,1.6-12.44,4.457a141.261,141.261,0,0,0-14.3,10.777,147.517,147.517,0,0,1-15.234,11.509c-5.189,3.193-10.91,5.655-16.964,5.655-5.921,0-11.509-2.528-16.565-5.721A148.818,148.818,0,0,1,304.8,390.162a119.321,119.321,0,0,0-14.17-10.777c-4.59-2.861-8.648-4.457-12.44-4.457-3.459,0-7.384,1.53-11.908,4.391a138.516,138.516,0,0,0-14.037,10.844,145.976,145.976,0,0,1-15.1,11.509c-5.189,3.193-10.977,5.655-17.031,5.655-6.12,0-11.775-2.461-16.9-5.721a141.632,141.632,0,0,1-14.968-11.442c-4.856-4.125-9.38-7.983-13.9-10.777-4.59-2.861-8.582-4.457-12.307-4.457-3.792,0-7.85,1.6-12.507,4.457a131.183,131.183,0,0,0-14.17,10.777,148.087,148.087,0,0,1-14.9,11.442c-5.056,3.193-10.644,5.721-16.565,5.721C97.835,407.326,92.113,404.865,86.858,401.671Zm.067,52.422A147.535,147.535,0,0,1,71.69,442.585a141.272,141.272,0,0,0-14.3-10.777c-4.59-2.861-8.715-4.391-12.44-4.391v-8.648c6.054,0,11.775,2.461,17.031,5.655a154.25,154.25,0,0,1,15.168,11.509,141.265,141.265,0,0,0,14.3,10.777c4.59,2.861,8.715,4.457,12.507,4.457,3.459,0,7.384-1.53,11.908-4.391a146.03,146.03,0,0,0,13.97-10.844A154.254,154.254,0,0,1,145,424.423c5.189-3.193,10.91-5.655,17.031-5.655,6.054,0,11.775,2.461,16.9,5.721a134.428,134.428,0,0,1,14.9,11.442,121.953,121.953,0,0,0,13.97,10.777c4.524,2.861,8.582,4.457,12.307,4.457s7.85-1.6,12.44-4.457a131.186,131.186,0,0,0,14.17-10.777,141.634,141.634,0,0,1,14.968-11.442c5.056-3.193,10.644-5.721,16.5-5.721,6.12,0,11.842,2.461,17.031,5.655a154.247,154.247,0,0,1,15.168,11.509,138.526,138.526,0,0,0,14.037,10.844c4.524,2.861,8.382,4.391,11.908,4.391,3.725,0,7.85-1.6,12.44-4.457a141.261,141.261,0,0,0,14.3-10.777,154.247,154.247,0,0,1,15.168-11.509c5.255-3.193,10.977-5.655,17.031-5.655,5.921,0,11.509,2.528,16.565,5.721A156.754,156.754,0,0,1,426.8,435.932a124.548,124.548,0,0,0,14.1,10.777c4.657,2.861,8.715,4.457,12.507,4.457,3.725,0,7.784-1.6,12.307-4.457,4.524-2.794,9.047-6.653,13.9-10.777a141.623,141.623,0,0,1,14.968-11.442c5.122-3.26,10.777-5.721,16.9-5.721,6.054,0,11.842,2.461,17.031,5.655a145.98,145.98,0,0,1,15.1,11.509,138.519,138.519,0,0,0,14.037,10.844c4.524,2.861,8.449,4.391,11.908,4.391,3.792,0,7.85-1.6,12.507-4.457a140.842,140.842,0,0,0,14.237-10.777,155.034,155.034,0,0,1,15.234-11.509c5.189-3.193,10.977-5.655,17.031-5.655,5.921,0,11.509,2.528,16.565,5.721a148.09,148.09,0,0,1,14.9,11.442,131.166,131.166,0,0,0,14.17,10.777c4.59,2.861,8.715,4.457,12.44,4.457,3.526,0,7.384-1.53,11.908-4.391A138.532,138.532,0,0,0,712.6,435.932a154.261,154.261,0,0,1,15.168-11.509c5.189-3.193,10.91-5.655,17.031-5.655,6.054,0,11.775,2.461,16.9,5.721a134.425,134.425,0,0,1,14.9,11.442,121.955,121.955,0,0,0,13.97,10.777c4.524,2.861,8.582,4.457,12.307,4.457s7.85-1.6,12.44-4.457a131.185,131.185,0,0,0,14.17-10.777,148.059,148.059,0,0,1,14.9-11.442c5.056-3.193,10.644-5.721,16.565-5.721v8.648c-3.459,0-7.384,1.464-11.908,4.391a137.315,137.315,0,0,0-14.037,10.777,145.988,145.988,0,0,1-15.1,11.509c-5.189,3.193-10.977,5.721-17.031,5.721-6.12,0-11.775-2.528-16.9-5.721a151.928,151.928,0,0,1-14.968-11.509,129.623,129.623,0,0,0-13.9-10.777c-4.59-2.861-8.582-4.391-12.307-4.391-3.792,0-7.85,1.53-12.507,4.391a132.876,132.876,0,0,0-14.1,10.777,156.75,156.75,0,0,1-14.968,11.442c-5.056,3.26-10.644,5.788-16.565,5.788-6.054,0-11.775-2.528-16.964-5.721a139.953,139.953,0,0,1-15.168-11.509,137.3,137.3,0,0,0-14.037-10.777c-4.524-2.927-8.449-4.391-11.908-4.391-3.725,0-7.85,1.53-12.507,4.391a148.741,148.741,0,0,0-14.237,10.777A155.058,155.058,0,0,1,586.6,454.094c-5.189,3.193-10.91,5.721-17.031,5.721-5.854,0-11.442-2.528-16.5-5.788A141.659,141.659,0,0,1,538.1,442.585a140.411,140.411,0,0,0-14.17-10.777c-4.59-2.861-8.715-4.391-12.44-4.391s-7.784,1.53-12.307,4.391a130.01,130.01,0,0,0-13.97,10.777,143.716,143.716,0,0,1-14.9,11.509c-5.123,3.193-10.844,5.721-16.9,5.721-6.12,0-11.842-2.528-17.031-5.721a154.271,154.271,0,0,1-15.168-11.509,137.309,137.309,0,0,0-14.037-10.777c-4.524-2.927-8.382-4.391-11.908-4.391-3.725,0-7.85,1.53-12.44,4.391a141.266,141.266,0,0,0-14.3,10.777,147.534,147.534,0,0,1-15.234,11.509c-5.189,3.193-10.91,5.721-16.964,5.721-5.921,0-11.509-2.528-16.565-5.788A156.766,156.766,0,0,1,304.8,442.585a132.887,132.887,0,0,0-14.1-10.777c-4.657-2.861-8.715-4.391-12.507-4.391-3.459,0-7.384,1.464-11.908,4.391a144.991,144.991,0,0,0-14.037,10.777,145.993,145.993,0,0,1-15.1,11.509c-5.189,3.193-10.91,5.721-17.031,5.721-6.054,0-11.775-2.528-16.9-5.721a143.712,143.712,0,0,1-14.9-11.509,136.943,136.943,0,0,0-13.97-10.777c-4.524-2.861-8.582-4.391-12.307-4.391-3.792,0-7.85,1.53-12.507,4.391a132.887,132.887,0,0,0-14.1,10.777,156.763,156.763,0,0,1-14.968,11.442c-5.056,3.26-10.644,5.788-16.5,5.788C97.835,459.815,92.113,457.287,86.924,454.094Z" transform="translate(-44.88 -156.59)"/></svg>