<svg xmlns="http://www.w3.org/2000/svg" width="97.349" height="114.552" viewBox="0 0 97.349 114.552"><defs><style>.a{fill:#d7b0a1;}</style></defs><path class="a" d="M3295.023,1917.98c-2.126.443-5.317,9.8-3.985,11.29.972,1.086,4.907.755,5.417,3.125,3.811,13.782,14.455,21.93,27.94,27.057,8.054,3.062,11.577,5.57,13.679,8.213a1.445,1.445,0,0,0,1.149.625h0a1.043,1.043,0,0,0,.141-.007l.032,0,.032,0a1.05,1.05,0,0,0,.141.007h0a1.445,1.445,0,0,0,1.15-.625c2.1-2.643,5.625-5.15,13.679-8.213,13.485-5.127,24.128-13.275,27.94-27.057.51-2.371,4.445-2.039,5.417-3.125,1.332-1.489-1.858-10.847-3.985-11.29-2.29-.477-8.856,6.2-8.517,7.956.235,1.215,3.438,3.125,2.787,4.9-2.586,7.209-11.313,15.652-21.123,16.252-10.21.625-11.773-3.75-12.294-9.376l-1.042-44.633a3.379,3.379,0,0,0,2.614-1.512c4.151-.374,9.815-.708,11.658-.835a4.062,4.062,0,1,0-.011-4.646c-1.882-.129-7.677-.471-11.834-.851a3.49,3.49,0,0,0-2.646-1.507l-.1-4.226a2.347,2.347,0,0,0,1.142-1.967,12.424,12.424,0,1,0-10.021,0,2.346,2.346,0,0,0,1.142,1.967l-.1,4.22h-.182a2.909,2.909,0,0,0-2.479,1.515c-4.156.38-9.94.721-11.819.85a4.064,4.064,0,1,0-.011,4.646c1.839.127,7.484.46,11.633.833a2.8,2.8,0,0,0,2.4,1.518h.236l-1.042,44.629c-.521,5.626-2.084,10-12.294,9.376-9.81-.6-18.537-9.043-21.123-16.252-.651-1.771,2.552-3.682,2.787-4.9C3303.879,1924.184,3297.313,1917.5,3295.023,1917.98Zm37.391-51.818a6.984,6.984,0,1,1,9.709,6.432l-.166-.343a2.068,2.068,0,0,0-1.444-.587h-2.231a2.069,2.069,0,0,0-1.445.587l-.165.343A6.986,6.986,0,0,1,3332.413,1866.162Z" transform="translate(-3290.723 -1853.738)"/></svg>