<svg xmlns="http://www.w3.org/2000/svg" width="115.076" height="88.615" viewBox="0 0 115.076 88.615"><defs><style>.a{fill:#d7b0a1;}</style></defs><g transform="translate(-135.801 -263.271)"><path class="a" d="M139.477,283.158c-1.3,4.454-2.265,7.222-3.115,7.042s-.59-3.32.038-7.695c.59-4.115,1.047-5.422,2.579-4.563C140.825,278.946,140.62,279.177,139.477,283.158Z" transform="translate(0.07 45.951)"/><path class="a" d="M142.73,285.184c-.1,4.128-.3,6.728-1.08,6.77-.762.034-1.26-2.73-1.717-6.64-.41-3.672-.327-4.9,1.193-4.513C142.943,281.257,142.826,281.5,142.73,285.184Z" transform="translate(12.493 55.644)"/><path class="a" d="M139.643,278.1c-1.633-3.8-2.78-6.125-3.517-5.87s-.155,2.993.875,6.786c.984,3.559,1.516,4.668,2.788,3.743C141.306,281.674,141.1,281.494,139.643,278.1Z" transform="translate(0 28.483)"/><path class="a" d="M146.139,285.7c.653,3.705.929,6.062.26,6.234-.695.18-1.624-2.21-2.721-5.61-1.03-3.2-1.185-4.312.234-4.245C145.624,282.167,145.557,282.4,146.139,285.7Z" transform="translate(22.543 59.938)"/><path class="a" d="M163.063,283.158c1.3,4.454,2.265,7.222,3.119,7.042s.578-3.32-.059-7.695c-.582-4.115-1.038-5.422-2.575-4.563C161.715,278.946,161.912,279.177,163.063,283.158Z" transform="translate(84.072 45.951)"/><path class="a" d="M158.68,285.184c.109,4.128.306,6.728,1.08,6.77s1.26-2.73,1.708-6.64c.419-3.672.335-4.9-1.185-4.513C158.471,281.257,158.592,281.5,158.68,285.184Z" transform="translate(72.772 55.644)"/><path class="a" d="M163.271,278.1c1.637-3.8,2.788-6.125,3.525-5.87.72.243.147,2.993-.892,6.786-.959,3.559-1.495,4.668-2.772,3.743C161.622,281.674,161.815,281.494,163.271,278.1Z" transform="translate(83.759 28.483)"/><path class="a" d="M155.926,285.7c-.653,3.705-.929,6.062-.26,6.234.687.18,1.612-2.21,2.713-5.61,1.038-3.2,1.181-4.312-.234-4.245C156.437,282.167,156.5,282.4,155.926,285.7Z" transform="translate(62.074 59.938)"/><g transform="translate(139.483 263.271)"><path class="a" d="M138.206,269.743c-4.739,8.972,2.692,17.948,6.992,16.512a18.114,18.114,0,0,1,10.638-19.5C154.726,262.37,143.2,260.9,138.206,269.743Z" transform="translate(-136.681 -263.271)"/><path class="a" d="M138.573,278.788c3.048.921,6.778-.36,9.164-3.462,2.4-3.123,2.684-7.038,1-9.755Z" transform="translate(-130.651 -255.943)"/></g><g transform="translate(226.204 263.271)"><path class="a" d="M175.026,269.743c4.744,8.972-2.679,17.948-7,16.512a18.118,18.118,0,0,0-10.63-19.5C158.518,262.37,170.04,260.9,175.026,269.743Z" transform="translate(-157.389 -263.271)"/><path class="a" d="M168.638,278.788c-3.048.921-6.778-.36-9.173-3.462-2.4-3.123-2.684-7.038-1.009-9.755Z" transform="translate(-157.394 -255.943)"/></g><g transform="translate(175.891 282.11)"><path class="a" d="M148.1,267.771a2.726,2.726,0,1,0,2.738,2.721A2.719,2.719,0,0,0,148.1,267.771Zm.678,3.056a.985.985,0,0,1-1-1,1,1,0,1,1,1,1Z" transform="translate(-145.377 -267.771)"/><g transform="translate(29.445)"><path class="a" d="M155.14,267.771a2.726,2.726,0,1,0,2.725,2.721A2.72,2.72,0,0,0,155.14,267.771Zm-.678,3.056a1,1,0,0,1,0-2.005,1,1,0,1,1,0,2.005Z" transform="translate(-152.41 -267.771)"/></g></g><g transform="translate(141.342 285.941)"><path class="a" d="M168.261,270.06c-4.522-1.708-4.434-1.185-7.13,4.513a47.528,47.528,0,0,0-3.328,8.235c.046.272.1.557.163.892a10.129,10.129,0,0,0,.234,1.168,13,13,0,0,1,.515,1.369.919.919,0,0,0,.042.13c1.825.26,4.882-3.06,8.637-7.909C171.267,273.472,172.038,271.5,168.261,270.06Z" transform="translate(-71.23 -267.042)"/><path class="a" d="M166.632,274.983a52.384,52.384,0,0,0-8.306,2.265q-.063,1.068-.163,2.035c1.654.318,4.806.205,9.085-.1,5.585-.4,5.953-.255,6.368-3.069C173.975,273.764,172.112,273.806,166.632,274.983Z" transform="translate(-70.086 -251.136)"/><path class="a" d="M168.418,277.811c-4.563-.9-7.988-1.47-9.918-1.39a15.033,15.033,0,0,1-.661,2.06c1.641,1.089,5.02,2.42,9.319,3.919,5.953,2.06,8.022,2.361,7.959-.3C175.024,278.916,174.593,279.029,168.418,277.811Z" transform="translate(-71.118 -244.062)"/><path class="a" d="M164.381,281.607c-2.642-1.289-4.815-2.286-6.477-2.9-.808.385-1.717.787-2.679,1.185a46.409,46.409,0,0,0,7.038,5.38c4.647,3.127,6.364,3.852,6.912,1.557C169.82,284.052,169.418,284.052,164.381,281.607Z" transform="translate(-79.445 -236.756)"/><g transform="translate(66.406 46.053)"><path class="a" d="M160.421,283.45c-2.135-1.62-3.9-2.91-5.267-3.764-.532.272-1.21.666-2.043,1.164l-.126.063a54.138,54.138,0,0,0,4.882,5.422c3.592,3.626,4.99,4.6,5.882,2.634C164.834,286.615,164.474,286.54,160.421,283.45Z" transform="translate(-152.986 -279.686)"/></g><g transform="translate(26.298 46.162)"><path class="a" d="M152.625,279.8a2.18,2.18,0,0,1-.264-.088c-1.348.85-3.048,2.1-5.1,3.655-4.057,3.09-4.417,3.165-3.328,5.518.892,1.964,2.29.992,5.878-2.634a54.044,54.044,0,0,0,4.865-5.388A20.131,20.131,0,0,0,152.625,279.8Z" transform="translate(-143.406 -279.712)"/></g><g transform="translate(14.035 42.155)"><path class="a" d="M151.433,278.755c-1.587.628-3.571,1.545-5.937,2.7-5.036,2.445-5.43,2.445-4.781,5.221.548,2.294,2.257,1.57,6.9-1.557a53.969,53.969,0,0,0,6.745-5.062C153.284,279.613,152.334,279.186,151.433,278.755Z" transform="translate(-140.477 -278.755)"/></g><path class="a" d="M153.7,276.42c-1.934-.075-5.355.49-9.885,1.39-6.167,1.218-6.615,1.105-6.69,4.291-.071,2.659,2.005,2.357,7.942.3a50.7,50.7,0,0,0,9.265-3.877A16.8,16.8,0,0,1,153.7,276.42Z" transform="translate(-137.125 -244.062)"/><path class="a" d="M152.521,277.231a52.616,52.616,0,0,0-8.264-2.248c-5.489-1.176-7.343-1.218-6.992,1.126.414,2.813.8,2.667,6.385,3.069,4.254.31,7.419.423,9.06.113C152.646,278.629,152.579,277.959,152.521,277.231Z" transform="translate(-136.811 -251.136)"/><path class="a" d="M150.607,286.237l.042-.042c.054-.155.1-.314.163-.469.038-.138.1-.611.188-1.143.071-.448.13-.825.188-1.151a42.832,42.832,0,0,0-3.454-8.859c-2.721-5.7-2.608-6.221-7.147-4.513-3.76,1.44-3.006,3.412.858,8.407C145.579,283.784,148.891,287.3,150.607,286.237Z" transform="translate(-133.93 -267.042)"/><path class="a" d="M149.566,270.264c.247-.017.41-.017.628-.025-.088-.423.147-.946,1.089-1.478a3.286,3.286,0,0,0-2.378,1.34A2.721,2.721,0,0,0,149.566,270.264Z" transform="translate(-99.585 -268.447)"/><path class="a" d="M150.567,270.389a4.186,4.186,0,0,0,1.227-.318c.033-.017.084-.025.117-.042a2.855,2.855,0,0,0-2.248-1.323C150.643,269.342,150.806,269.924,150.567,270.389Z" transform="translate(-97.169 -268.622)"/><g transform="translate(65.196)"><path class="a" d="M152.789,270.666l.36.033a5.015,5.015,0,0,1,.955.385l.548-2.005-1.415-.394-.54,2C152.722,270.683,152.756,270.666,152.789,270.666Z" transform="translate(-152.697 -268.686)"/></g><g transform="translate(36.84)"><path class="a" d="M146.849,271.068l.419-.05a4.9,4.9,0,0,1,.758.146l-.678-2.479-1.423.394.582,2.127C146.627,271.173,146.728,271.093,146.849,271.068Z" transform="translate(-145.924 -268.686)"/></g></g><path class="a" d="M209.342,286.331c-.138-.427-.3-.833-.473-1.227a8.812,8.812,0,0,1-.352-1.578,17.612,17.612,0,0,0-.49-2.223,8.575,8.575,0,0,0-1.424-.624,3.572,3.572,0,0,1-1.243-.636,11.562,11.562,0,0,1-1.34-2.19c-.272-.494-.657-1.181-.867-1.524a3.147,3.147,0,0,0-.72.033,3.526,3.526,0,0,1-2.076-.205,10.717,10.717,0,0,1-1.721-1.658,17.493,17.493,0,0,0-1.583-1.6,10.423,10.423,0,0,0-1.164.222,3.544,3.544,0,0,1-1.8.121,10.494,10.494,0,0,1-2.529-1.407,8.2,8.2,0,0,0-2.6-1.382,9.082,9.082,0,0,0-.959.268,6.125,6.125,0,0,1-1.788.394l-.289-.017a8.148,8.148,0,0,1-2.076-.766,10.22,10.22,0,0,0-2.654-.95,4.9,4.9,0,0,0-2.185.427,5.59,5.59,0,0,1-1.9.448c-.481-.017-.833-.025-1.16-.025l-.507.008c-.473.008-.98.017-1.57.059h-.034a5.877,5.877,0,0,1-1.989-.4,5.025,5.025,0,0,0-2.181-.369,10.619,10.619,0,0,0-2.633,1.021,7.977,7.977,0,0,1-2.06.812l-.343.034a6.835,6.835,0,0,1-1.733-.343,4.637,4.637,0,0,0-1-.239,8.165,8.165,0,0,0-2.537,1.44,10.783,10.783,0,0,1-2.479,1.478,3.834,3.834,0,0,1-1.813-.088,6.6,6.6,0,0,0-1.122-.163,10.668,10.668,0,0,0-1.578,1.608,11.251,11.251,0,0,1-1.691,1.721,3.277,3.277,0,0,1-2.06.251c-.272-.017-.582-.033-.745-.025-.138.272-.54,1.038-.816,1.578a12.735,12.735,0,0,1-1.268,2.185,3.563,3.563,0,0,1-1.252.687,6.459,6.459,0,0,0-1.44.729c-.071.2-.268,1.461-.373,2.139a8.819,8.819,0,0,1-.314,1.6,9.648,9.648,0,0,0-.44,1.218,13.973,13.973,0,0,0-.59,5.258c.942,11.9,2.709,12.911,18.5,18.488a21.794,21.794,0,0,1,2.855,1.474,35.933,35.933,0,0,0,8.976,4,14.043,14.043,0,0,0,2.332.121l2-.017c.7-.008,1.264-.025,1.264-.025a13.867,13.867,0,0,0,3.06-.205,35.562,35.562,0,0,0,8.867-4.22,24.111,24.111,0,0,1,2.813-1.536c15.654-6,17.4-7.046,18.032-18.961A14.072,14.072,0,0,0,209.342,286.331Zm-11.095,18.9c-1.775.758-3.852,1.578-6.422,2.566a19.678,19.678,0,0,0-2.386,1.315,33.557,33.557,0,0,1-8.361,3.961,15.088,15.088,0,0,1-3.052.226c-.008,0-.532.017-1.176.017-.645.017-1.168.017-1.168.017-.239,0-.469.008-.691.008a12.63,12.63,0,0,1-2.361-.155,43,43,0,0,1-8.955-3.542c-.833-.406-1.478-.724-1.93-.9-13.5-5.3-16.721-6.983-17.622-18.421a.357.357,0,0,1,.239-.352.347.347,0,0,1,.385.18c.72,1.449,1.285,2.738,1.784,3.868,2.118,4.865,3.186,7.3,11.358,10.375.6.222,1.8.779,3.324,1.474,2.767,1.269,6.56,3.01,9.5,4.032a15.6,15.6,0,0,0,2.935.465l1.176.113c.657.067,1.181.109,1.181.109a12.446,12.446,0,0,0,1.34.071,10.1,10.1,0,0,0,1.691-.13,36.045,36.045,0,0,0,8.779-2.834,23.4,23.4,0,0,1,2.579-1.009c2.625-.653,5.355-1.373,7.62-2.068a.341.341,0,0,1,.419.205A.323.323,0,0,1,198.248,305.229Z" transform="translate(17.63 19.426)"/></g></svg>