<svg xmlns="http://www.w3.org/2000/svg" width="777" height="284.953" viewBox="0 0 777 284.953"><defs><style>.a{fill:#d7b0a1;fill-rule:evenodd;}</style></defs><path class="a" d="M221.649,440.48a4.012,4.012,0,0,1,0-5.766L498.423,157.878a4.077,4.077,0,0,1,5.766,5.766L227.415,440.48A4.124,4.124,0,0,1,221.649,440.48Zm42.932,0a4.012,4.012,0,0,1,0-5.766L541.355,157.878a4.077,4.077,0,0,1,5.766,5.766L270.348,440.48A4.124,4.124,0,0,1,264.581,440.48Zm42.932,0a4.012,4.012,0,0,1,0-5.766L584.288,157.878a4.077,4.077,0,0,1,5.766,5.766L313.28,440.48A4.124,4.124,0,0,1,307.514,440.48Zm42.932,0a4.012,4.012,0,0,1,0-5.766L627.22,157.878a4.077,4.077,0,0,1,5.766,5.766L356.213,440.48A4.124,4.124,0,0,1,350.446,440.48Zm42.87,0a4.124,4.124,0,0,1,0-5.766L670.153,157.878a4.077,4.077,0,0,1,5.766,5.766L399.082,440.48A4.124,4.124,0,0,1,393.316,440.48Zm42.932,0a4.124,4.124,0,0,1,0-5.766L713.085,157.878a4.077,4.077,0,0,1,5.766,5.766L442.015,440.48A4.124,4.124,0,0,1,436.249,440.48Zm42.932,0a4.124,4.124,0,0,1,0-5.766L756.018,157.878a4.077,4.077,0,0,1,5.766,5.766L484.947,440.48A4.124,4.124,0,0,1,479.181,440.48Zm42.932,0a4.124,4.124,0,0,1,0-5.766L798.95,157.878a4.077,4.077,0,0,1,5.766,5.766L527.88,440.48A4.124,4.124,0,0,1,522.114,440.48Zm42.932,0a4.124,4.124,0,0,1,0-5.766L841.883,157.878a4.077,4.077,0,0,1,5.766,5.766L570.812,440.48A4.124,4.124,0,0,1,565.046,440.48Zm42.932,0a4.124,4.124,0,0,1,0-5.766L884.815,157.878a4.077,4.077,0,0,1,5.766,5.766L613.745,440.48A4.124,4.124,0,0,1,607.979,440.48Zm42.932,0a4.124,4.124,0,0,1,0-5.766L927.685,157.878a4.124,4.124,0,0,1,5.766,0,4.011,4.011,0,0,1,0,5.766L656.677,440.48A4.124,4.124,0,0,1,650.911,440.48Zm42.933,0a4.124,4.124,0,0,1,0-5.766l263.11-263.173a4.124,4.124,0,0,1,5.766,0,4.011,4.011,0,0,1,0,5.766L699.61,440.48A4.124,4.124,0,0,1,693.844,440.48Zm42.932,0a4.124,4.124,0,0,1,0-5.766L956.954,214.473a4.124,4.124,0,0,1,5.766,0,4.011,4.011,0,0,1,0,5.766L742.542,440.48A4.124,4.124,0,0,1,736.776,440.48Zm42.932,0a4.124,4.124,0,0,1,0-5.766L956.954,257.406a4.124,4.124,0,0,1,5.766,0,4.011,4.011,0,0,1,0,5.766L785.475,440.48A4.124,4.124,0,0,1,779.709,440.48Zm42.932,0a4.012,4.012,0,0,1,0-5.766L956.954,300.338a4.077,4.077,0,0,1,5.766,5.766L828.345,440.48A4.048,4.048,0,0,1,822.641,440.48Zm42.933,0a4.011,4.011,0,0,1,0-5.766l91.38-91.443a4.124,4.124,0,0,1,5.766,0,4.011,4.011,0,0,1,0,5.766L871.34,440.48A4.124,4.124,0,0,1,865.574,440.48Zm42.932,0a4.011,4.011,0,0,1,0-5.766l48.448-48.51a4.077,4.077,0,0,1,5.766,5.766l-48.448,48.51A4.124,4.124,0,0,1,908.506,440.48Zm42.933,0a4.011,4.011,0,0,1,0-5.766l5.515-5.578a4.124,4.124,0,0,1,5.766,0,4.011,4.011,0,0,1,0,5.766L957.2,440.48A4.124,4.124,0,0,1,951.439,440.48Zm-763.321-9.464a4.048,4.048,0,0,1,0-5.7L455.49,157.878a4.124,4.124,0,0,1,5.766,0,4.012,4.012,0,0,1,0,5.766L193.884,431.016A4.012,4.012,0,0,1,188.118,431.016Zm0-42.933a4.124,4.124,0,0,1,0-5.766l224.44-224.44a4.124,4.124,0,0,1,5.766,0,4.012,4.012,0,0,1,0,5.766l-224.44,224.44A4.011,4.011,0,0,1,188.118,388.084Zm0-42.932a4.124,4.124,0,0,1,0-5.766L369.625,157.878a4.124,4.124,0,0,1,5.766,0,4.011,4.011,0,0,1,0,5.766L193.884,345.151A4.012,4.012,0,0,1,188.118,345.151Zm0-42.933a4.124,4.124,0,0,1,0-5.766L326.693,157.878a4.124,4.124,0,0,1,5.766,0,4.012,4.012,0,0,1,0,5.766L193.884,302.219A4.012,4.012,0,0,1,188.118,302.219Zm0-42.87a4.124,4.124,0,0,1,0-5.766l95.7-95.705a4.077,4.077,0,0,1,5.766,5.766l-95.705,95.705A4.124,4.124,0,0,1,188.118,259.349Zm0-42.933a4.124,4.124,0,0,1,0-5.766l52.773-52.772a4.077,4.077,0,0,1,5.766,5.766l-52.773,52.772A4.124,4.124,0,0,1,188.118,216.416Zm0-42.932a4.124,4.124,0,0,1,0-5.766l9.84-9.84a4.077,4.077,0,0,1,5.766,5.766l-9.84,9.84A4.124,4.124,0,0,1,188.118,173.484Z" transform="translate(-186.943 -156.703)"/></svg>