<svg xmlns="http://www.w3.org/2000/svg" width="208" height="218" viewBox="0 0 208 218"><defs><style>.a,.b{fill:#d7b0a1;}.a{font-size:70px;font-family:Times-Bold, Times;font-weight:700;}</style></defs><g transform="translate(-856 -78)"><text class="a" transform="translate(960 278)"><tspan x="-103.069" y="0">NEKK</tspan></text><g transform="translate(467.608 -71.276)"><path class="b" d="M519.522,234.677a66.387,66.387,0,0,1,6.378,2.667,18.566,18.566,0,0,1-18.193,7.385c-.126-.043-.247-.1-.383-.133a.25.25,0,0,1-.036-.013h0l0,0a5.3,5.3,0,0,0-1.305-.159c-.67-.146-1.335-.32-2-.52a1.663,1.663,0,0,0-.192-.136,5.638,5.638,0,0,0-1.323-.609.107.107,0,0,1-.034-.014l-.006,0a5.406,5.406,0,0,0-1.1-.187,31.2,31.2,0,0,1-4.5-2.308v-5.518a24.269,24.269,0,0,0,11.777-5.915l.2.191c.2.195.118,1.382.409,1.337-.132.3-.179.507-.136.542.048.051.294-.04.636-.247l1.054-.169.02-.023c-.166,1.009.7,2.5,2,4.263,1.4,1.889,2.853,2.313,4.11,1.322a.759.759,0,0,0,.2.744.8.8,0,0,0,1.14-.05.817.817,0,0,0,.028-1.145.793.793,0,0,0-.759-.172c.938-1.25.495-2.7-1.419-4.076-1.644-1.192-3.288-2.091-4.344-1.889l.186-1.069h-.005c.2-.348.286-.6.24-.65s-.25.015-.528.146c.029-.287-1.166-.167-1.367-.355l-.173-.171a24.218,24.218,0,0,0,6.458-15.369l.272-.006c.28-.005,1.057.9,1.23.666.112.3.23.477.282.477s.182-.238.277-.631l.62-.86v-.033c.594.835,2.265,1.278,4.429,1.6,2.329.348,3.663-.385,3.849-1.974a.751.751,0,0,0,.66.394.808.808,0,0,0,.773-.845.82.82,0,0,0-.789-.827.765.765,0,0,0-.651.41c-.225-1.545-1.568-2.259-3.894-1.884-2,.324-3.8.857-4.4,1.741l-.634-.884v.005c-.108-.388-.232-.63-.292-.635s-.166.187-.282.482c-.182-.222-.935.7-1.21.709h-.23a24.226,24.226,0,0,0-6.317-15.422l.19-.2c.192-.2,1.387-.11,1.347-.4.3.128.5.177.535.134.055-.046-.036-.3-.253-.649l-.161-1.042-.025-.023c1.007.169,2.5-.7,4.26-2,1.893-1.394,2.31-2.859,1.33-4.113a.762.762,0,0,0,.739-.2A.835.835,0,0,0,517,185.206a.784.784,0,0,0-.172.749c-1.247-.932-2.7-.492-4.073,1.417-1.2,1.652-2.092,3.293-1.894,4.342l-1.071-.177.005.005c-.349-.2-.6-.282-.651-.24s.011.247.147.53c-.3-.025-.172,1.165-.366,1.364l-.166.172c-.191-.178-.382-.356-.58-.527a5.928,5.928,0,0,0-1.374-2.126l-.492-.405v-.035a4.869,4.869,0,0,0-1.245-2.835v0l-.005,0a.247.247,0,0,1-.021-.029l0,0V187.4a5.836,5.836,0,0,0-2.111-1.45l-.567-.182a4.956,4.956,0,0,0-1.906-2.228l-.005,0a6.04,6.04,0,0,0-2.231-.826l-.547-.053a4.654,4.654,0,0,0-.83-.985h10.52a5.243,5.243,0,1,0-.005-6.244h-6.758a6.467,6.467,0,0,0,.766-.5,4.494,4.494,0,0,0,.58-.575h.011a4.686,4.686,0,0,0,2.875-1.068c.105-.083.211-.176.315-.274l.013-.006,0,0,.01,0,0,0a8.438,8.438,0,0,0,1.314-1.724,3.919,3.919,0,0,0,.363-.919l.018-.01a4.512,4.512,0,0,0,1.974-3.2l0-.009v-.005a2.765,2.765,0,0,0,.03-.3c0-.043.01-.08.013-.125,0-.023,0-.045,0-.068a.048.048,0,0,1,.008-.024h-.005l.005-.01h-.008a5.9,5.9,0,0,0-.126-1.369,6.706,6.706,0,0,0-.359-1.153,4.105,4.105,0,0,0-.473-.769,4.457,4.457,0,0,0-.474-2.727c-.08-.159-.171-.32-.274-.489a4.523,4.523,0,0,0-.262-.375l0,0h0v0l0-.005h0a7.388,7.388,0,0,0-1.8-1.564,3.4,3.4,0,0,0-.821-.34,4.666,4.666,0,0,0-2.466-2.171,10.394,10.394,0,0,0-19.97,4.046,10.192,10.192,0,0,0,.146,1.693c.043-.015.084-.038.129-.051a2.728,2.728,0,0,1,.147-.343c.026-.05.053-.1.083-.154.053-.1.1-.166.1-.183-.03-.318-.05-.638-.05-.961a9.822,9.822,0,0,1,15.664-7.919,10.838,10.838,0,0,0-3.31-.515,10.963,10.963,0,0,0-10.353,7.418c.029-.018.059-.03.085-.048-.112.068-.223.125-.336.2s-.2.154-.307.24l-.011.006-.008,0,.005.006a8.484,8.484,0,0,0-1.359,1.551,3.138,3.138,0,0,0-.339.694,4.68,4.68,0,0,0-2.4,1.747,4,4,0,0,0-.233.348l-.01.005.005,0-.008.005,0,0a7.955,7.955,0,0,0-.819,2.037c-.207-.016-.4-.028-.535-.028-.105,0-.21,0-.325.008l-.607.079c-.01-.01-.014-.019-.026-.025a4.474,4.474,0,0,0-2.934-1c-.12,0-.247,0-.38.01a5.013,5.013,0,0,0-1.751.468,4.922,4.922,0,0,0-1.215.81l-.166.169c-.094.107-.179.207-.265.307h-.024a6.62,6.62,0,0,0-2.185.359h0a6.347,6.347,0,0,0-1.215.674l-.384.27-.075.05a4.56,4.56,0,0,0-2.072-.678l-.028-.005a6.4,6.4,0,0,0-2.194.262l-1.127.405.875.5a4.611,4.611,0,0,1,1.28,1.242c.225.292.439.6.649.909l.063.09c.162.227.324.457.5.678a5.008,5.008,0,0,0,1.8,1.524,4.158,4.158,0,0,0,1.78.39,5.531,5.531,0,0,0,1.414-.2c.133-.036.276-.087.424-.142h.021l0-.01a6.279,6.279,0,0,0,1.1-.57,6.557,6.557,0,0,0,.851-.643,2.575,2.575,0,0,0,.468-.564c.159.009.315.016.459.016a8.652,8.652,0,0,0,1.215-.084c.035-.01.08-.028.117-.04l.013.005v0l0,0v-.01a2.225,2.225,0,0,0,.227-.073c.084-.03.174-.063.267-.093.167-.059.341-.1.447-.129l.089-.023c.069-.023.141-.045.211-.073.015-.008.03-.01.045-.018.069-.025.122-.045.177-.07a4.174,4.174,0,0,0,1.561,1.066,4.786,4.786,0,0,0,.2.732,3.3,3.3,0,0,0,.407.792,4.458,4.458,0,0,0,.2,2.619h-.895a5.248,5.248,0,1,0,0,6.244h7c.355.138.641.228.751.26a3.282,3.282,0,0,0,.719.108,4.724,4.724,0,0,0,1.987,1.783s.043.016.083.031v3.45a24.271,24.271,0,0,0-11.924,6.051l-.177-.176c-.183-.2-.043-1.4-.336-1.372.138-.29.188-.5.148-.545s-.3.05-.661.252l-1.087.192c.22-1.067-.663-2.718-1.852-4.38-1.372-1.909-2.839-2.339-4.113-1.377a.752.752,0,0,0-.171-.763.8.8,0,0,0-1.147.041.814.814,0,0,0-.072,1.156.769.769,0,0,0,.757.186c-1.017,1.281-.607,2.756,1.286,4.145,1.772,1.294,3.267,2.161,4.293,1.975l-.02.025-.19,1.058c-.208.351-.307.6-.259.659.029.036.246-.016.546-.149-.045.295,1.16.192,1.352.392l.195.2a24.231,24.231,0,0,0-6.3,15.382h-.235c-.274-.014-1.033-.956-1.214-.729-.113-.3-.222-.484-.277-.489s-.183.247-.29.646v-.006l-.638.909c-.6-.909-2.391-1.452-4.4-1.783-2.326-.383-3.666.348-3.894,1.926a.767.767,0,0,0-.654-.42.861.861,0,0,0-.016,1.714.776.776,0,0,0,.664-.4c.192,1.626,1.522,2.381,3.843,2.023,2.169-.341,3.84-.782,4.431-1.639v.03l.619.88c.1.4.21.65.282.655.055,0,.163-.188.285-.493.173.236.946-.686,1.232-.684l.27.009a24.227,24.227,0,0,0,6.435,15.319l-.168.172c-.207.188-1.4.051-1.369.341-.3-.134-.51-.19-.547-.143s.038.3.248.659l.192,1.086c-1.063-.217-2.721.664-4.371,1.849-1.921,1.372-2.351,2.836-1.394,4.116a.765.765,0,0,0-.757.162.831.831,0,0,0,.04,1.16.817.817,0,0,0,1.16.067.776.776,0,0,0,.184-.758c1.284,1.023,2.761.6,4.139-1.285,1.3-1.768,2.162-3.268,1.983-4.291l.02.024,1.059.184c.353.212.607.307.66.262s-.005-.25-.143-.547c.289.04.182-1.16.389-1.357l.2-.191c.343.313.683.626,1.043.917a1.579,1.579,0,0,0-.054.365l0,.482a3.432,3.432,0,0,0-.009.379,5.253,5.253,0,0,0,.316,1.67c.045.125.1.255.161.388v.011l0,0v.013l.008,0a8.2,8.2,0,0,0,1.222,1.787,3.8,3.8,0,0,0,.611.5,4.727,4.727,0,0,0,1.209,2.72c.082.1.178.2.274.291l.005.008h0l.005.005,0,0a8.665,8.665,0,0,0,1.687,1.195,3.04,3.04,0,0,0,.714.262,4.714,4.714,0,0,0,1.79,2.174l0,0h0s-.108-.09-.164-.136c-8.933,4.3-19.369,4.026-26.138-4.912a66.605,66.605,0,0,1,6.368-2.667c-6.537-3.31-12.042-8.357-14.75-14.721a23.461,23.461,0,0,0-.516,22.456,59.617,59.617,0,0,1,6.132-3.695c4.435,12.58,15.039,13.786,28.105,21.612a53.341,53.341,0,0,1,8.254,5.462c2.626-2.383,6.363-4.33,8.254-5.462,4.669-2.8,10.562-4.748,14.268-6.675-.02-.009,1.14.32,1.418.379l.1.024a2.92,2.92,0,0,0,.54.045h.033a4.572,4.572,0,0,0,1.381,1.694l0,0c.064.048.134.094.207.144l.013.018v0l.005.005.006-.008a12.294,12.294,0,0,0,1.15.65l.156.084a3.366,3.366,0,0,0,.484.176,4.443,4.443,0,0,0,.595,1.9c.041.06.087.127.129.193l0,.016h0l0,.008.008-.008a11.627,11.627,0,0,0,.746.96c.055.068.1.118.129.161a2.529,2.529,0,0,0,.338.309,5.025,5.025,0,0,0-.37,1.273c-.013.092-.028.184-.034.272,0,.04.006.079.009.117l-.011.01h0l0,0,.011,0a5.788,5.788,0,0,0,.065.584c.014.1.028.174.033.262,0,.041.015.089.023.134a2.667,2.667,0,0,0-1.247.3.233.233,0,0,0-.049.026c-.035.016-.075.043-.115.067h-.018v.009c-.06.036-.119.07-.181.105l-.077.045c-.146.088-.318.192-.453.28-.346.222-.622.429-.715.494a3.1,3.1,0,0,0-.473.468,4.092,4.092,0,0,0-.713-.066,4.891,4.891,0,0,0-1.8.36,3.239,3.239,0,0,0-.3.131h-.013v.005a10.885,10.885,0,0,0-1.532.966,3.4,3.4,0,0,0-.586.6l-.261.358.438.073a11.129,11.129,0,0,1,2.147.57c.359.174.723.382,1.076.581l.72.4a6.083,6.083,0,0,0,2.9.852,5.125,5.125,0,0,0,1.86-.365,5.366,5.366,0,0,0,1.714-1.116l0,0v0a5.072,5.072,0,0,0,.686-.753l.143-.227a5.515,5.515,0,0,0,.28-.493l.011,0a.64.64,0,0,1,.065-.026,4.552,4.552,0,0,0,2.4-3.212l.005-.005v-.013a.214.214,0,0,1,.01-.043l0-.008c.013-.072.019-.137.029-.2.016-.117.04-.23.048-.341a5.3,5.3,0,0,0-.477-2.6l-.117-.212c-.074-.136-.156-.261-.236-.388a4.866,4.866,0,0,0-.469-3.259l0-.011a.077.077,0,0,1-.013-.025c-.06-.118-.124-.228-.193-.338a6.054,6.054,0,0,0-1.541-1.637l-.541-.329c0-.011,0-.024-.006-.031a4.885,4.885,0,0,0-1.621-2.6l-.005-.006-.005,0v0a.1.1,0,0,1-.023-.023,5.9,5.9,0,0,0-2.26-1.14l-.031-.008a22.49,22.49,0,0,0,8.328-11.551,59.894,59.894,0,0,1,6.133,3.695,23.447,23.447,0,0,0-.52-22.456C531.563,226.32,526.061,231.367,519.522,234.677Zm-3.092.723a2.457,2.457,0,0,0,.875-.609,2.106,2.106,0,0,1-1.161,1.289,2.139,2.139,0,0,1-2.736-1.5,3.259,3.259,0,0,1-.131-.486A2.539,2.539,0,0,0,516.43,235.4Zm10.018-24.192a2.512,2.512,0,0,0,.177-1.047,2.069,2.069,0,0,1,.093,1.737,2.136,2.136,0,0,1-2.988.871,2.909,2.909,0,0,1-.429-.259A2.537,2.537,0,0,0,526.448,211.208Zm-10.03-24.188a2.387,2.387,0,0,0-.606-.87,2.076,2.076,0,0,1,1.289,1.162,2.133,2.133,0,0,1-1.5,2.733,4.879,4.879,0,0,1-.488.123A2.526,2.526,0,0,0,516.417,187.02Zm-47.579,3.048a2.12,2.12,0,0,1-1.483-2.749,2.194,2.194,0,0,1,1.324-1.187,2.6,2.6,0,0,0-.63.89,2.51,2.51,0,0,0,1.278,3.164A2.823,2.823,0,0,1,468.838,190.068Zm-8.094,22.741a2.123,2.123,0,0,1-3-.9,2.224,2.224,0,0,1,.093-1.775,2.608,2.608,0,0,0,.191,1.069,2.512,2.512,0,0,0,3.148,1.337A4.345,4.345,0,0,1,460.744,212.809Zm10.343,21.8a2.115,2.115,0,0,1-2.747,1.482,2.213,2.213,0,0,1-1.19-1.323,2.641,2.641,0,0,0,.891.628,2.52,2.52,0,0,0,3.169-1.281A3.381,3.381,0,0,1,471.087,234.613ZM456.8,236.685a32.236,32.236,0,0,1-3.976-9.833,34.32,34.32,0,0,0,8.931,7.605c-1.2.493-2.459,1.048-3.789,1.677Zm32.141-1.36c.659.089,1.325.148,2,.184v3.839l-.394-.013a4.944,4.944,0,0,0-1.605-1.7Zm17.937-43.69,0,0c.034.073.058.154.088.231-.092-.07-.186-.139-.279-.208-.023-.11-.035-.22-.069-.33A3.87,3.87,0,0,1,506.883,191.634Zm-3.449-4.325a3.611,3.611,0,0,0-.459-.742c.1.049.21.1.338.172a3.7,3.7,0,0,1,1.181,2v-.008l0,.018a2.982,2.982,0,0,0-.187-1.23c-.013-.04-.035-.079-.051-.119a4.823,4.823,0,0,1,.372.364c.028.038.053.07.082.105a1.511,1.511,0,0,1,.1.168,2.047,2.047,0,0,1,.148.4,2.9,2.9,0,0,1,.1.872l.008-.01v.02a2.886,2.886,0,0,0,.172-.707,4.046,4.046,0,0,1,.527,1.691,3.618,3.618,0,0,1-.031.646,24.213,24.213,0,0,0-2.8-1.588,8.866,8.866,0,0,0,.1-1,5.5,5.5,0,0,0-.089-1.2c.078.085.163.166.237.256a3.371,3.371,0,0,1,.52.946v-.008l.005.013A3.252,3.252,0,0,0,503.434,187.31Zm-4.71-3.928a3.689,3.689,0,0,1,1.526,1.556l.013.013a3.158,3.158,0,0,0-.457-1.093c-.023-.034-.051-.065-.073-.1a4.027,4.027,0,0,1,.415.232c.04.028.077.058.114.085a1.47,1.47,0,0,1,.115.119,1.971,1.971,0,0,1,.232.33,2.96,2.96,0,0,1,.315.777v-.015l.008.02a3.018,3.018,0,0,0-.021-.694,4.385,4.385,0,0,1,1.288,3.473c-.019.272-.04.545-.067.8l-.013.087a24.051,24.051,0,0,0-2.963-1.1c-.033-.255-.064-.512-.089-.789l-.079-.812a12.064,12.064,0,0,0-.187-1.258,6.29,6.29,0,0,0-.335-1.131,2.665,2.665,0,0,1,.265.182,3.328,3.328,0,0,1,.7.767l-.005-.013.01.013a3.4,3.4,0,0,0-.492-.945,3.586,3.586,0,0,0-.56-.59C498.484,183.321,498.6,183.346,498.724,183.381Zm-.8,1.547.285,2.046c.036.2.1.449.176.7-.133-.034-.267-.07-.4-.1a2.735,2.735,0,0,1-.19-.28v.008l-.009-.01a2.451,2.451,0,0,0,.082.252c-.238-.057-.468-.133-.71-.183a2.009,2.009,0,0,1-.092-.212l0,.011-.008-.018a1.677,1.677,0,0,0,.033.207c-.09-.019-.187-.025-.277-.043v-4.872A5.01,5.01,0,0,1,497.925,184.929Zm-9.793-10.978-.01-.01a3.989,3.989,0,0,0,.668.809c.124.105.25.2.387.3h-.031c-.043-.005-.09-.023-.131-.028a3,3,0,0,1-.868-.3,2.316,2.316,0,0,1-.828-.747l.005.018c0-.008-.009-.01-.015-.018a2.459,2.459,0,0,0,.658.961c.014.011.03.02.04.03-.173-.024-.331-.055-.487-.092a1.061,1.061,0,0,1-.143-.068,1.949,1.949,0,0,1-.345-.235,2.625,2.625,0,0,1-.54-.673l.005.015c0-.008-.008-.01-.01-.019a2.562,2.562,0,0,0,.248.7,4.306,4.306,0,0,1-2.4-2.922L484,170.578c-.084-.3-.166-.6-.265-.885a8.985,8.985,0,0,0-.408-1.064c.09.048.176.093.262.148a3.332,3.332,0,0,1,.715.625,3.627,3.627,0,0,0-.54-.833c-.117-.129-.2-.227-.307-.324a1.638,1.638,0,0,0,.134-.113,3.572,3.572,0,0,1,1.485,1.212,3.216,3.216,0,0,0-.535-.953c-.023-.03-.054-.055-.075-.085.141.045.27.093.393.146.039.018.073.038.11.055a.962.962,0,0,1,.122.092,1.774,1.774,0,0,1,.245.257,3.308,3.308,0,0,1,.4.655,3.468,3.468,0,0,0-.132-.648,4.122,4.122,0,0,1,.789.668h-.005l.082.088a7.04,7.04,0,0,1,1.143,2l.31.756a10.965,10.965,0,0,0,.53,1.147,6.721,6.721,0,0,0,.96,1.2,3.329,3.329,0,0,1-.448-.189,3.875,3.875,0,0,1-.842-.587Zm-.609,1.49v0l-.005,0Zm-8.163-.24v-.02a1.609,1.609,0,0,0-.087.247h-.537a.392.392,0,0,0-.013-.053,2.494,2.494,0,0,1,.1-.973c-.006,0-.009.005-.009.01l0-.019a2.215,2.215,0,0,0-.338.737,3.839,3.839,0,0,1-.143-2.124l.05-.2V172.8a3.9,3.9,0,0,1,1.1-1.736c.2-.186.41-.363.623-.523.32-.235.668-.454,1-.655.154-.094.3-.177.434-.256.177-.105.334-.2.482-.291-.02.065-.041.136-.065.2a3.524,3.524,0,0,1-.379.72l.005,0-.005.01a4.8,4.8,0,0,0,.623-.612,3.584,3.584,0,0,0,.336-.474c.015.083.026.173.04.262-.023.09-.043.182-.072.272a3.166,3.166,0,0,1-.591,1.122l.01-.005-.01.013a4.415,4.415,0,0,0,.7-.639c.018-.015.023-.035.04-.05,0,.1.018.2.013.287,0,.028-.01.053-.01.08a.608.608,0,0,1-.043.109,1.55,1.55,0,0,1-.144.242,5.4,5.4,0,0,1-.425.5l.01-.01-.01.013c.184-.1.36-.207.53-.318a4.891,4.891,0,0,1-.361,1c-.163.348-.363.71-.563,1.082q-.171.322-.341.638c-.128.242-.247.492-.353.749a6.836,6.836,0,0,0-.3.9H479.36a1.917,1.917,0,0,1,0-.24Zm2.177.225c.131-.423.3-.84.417-1.117.077-.177.151-.343.22-.5.074-.172.143-.326.206-.474.018.065.045.128.061.191a.112.112,0,0,1,0,.028,3.758,3.758,0,0,1,.108.737c0,.013,0,.025,0,.04l0-.005,0,.013a5.719,5.719,0,0,0,.144-.862,3.649,3.649,0,0,0,0-.55c.029.038.048.083.078.122.045.055.1.1.148.148l.005.008a3.4,3.4,0,0,1,.242,1.409l0-.015,0,.02a4.509,4.509,0,0,0,.174-.937l.008-.065c.06.08.128.151.181.231.013.02.023.041.036.067a.66.66,0,0,1,.034.12,1.6,1.6,0,0,1,.031.29,4.683,4.683,0,0,1-.044.679l.005-.013,0,.015a5.421,5.421,0,0,0,.241-.586,5.1,5.1,0,0,1,.3,1.009h-2.607Zm1.547-3.326-.013-.01a4.157,4.157,0,0,0,.537.886,4.061,4.061,0,0,0,.326.348l-.019,0a.739.739,0,0,1-.136-.05,7.939,7.939,0,0,0-.673-.728l-.37-.338a4.877,4.877,0,0,0,.425-1.443c.085.306.181.631.3.956a9.113,9.113,0,0,0,.766,1.327c-.143-.079-.286-.169-.421-.26a4.187,4.187,0,0,1-.732-.692Zm1.371,1.821a2.83,2.83,0,0,0,.423-.025,4.669,4.669,0,0,0,2.287,1.45c.079.025.23.063.3.083h-2.756a5.306,5.306,0,0,0-.508-1.52C484.289,173.916,484.373,173.921,484.456,173.921Zm-.348-6.3c.055-.068.108-.148.161-.22s.1-.136.154-.211a4.317,4.317,0,0,0,.249-.434,10.632,10.632,0,0,0,2.981,2.211v.43l-.138.005-.459.054a4.926,4.926,0,0,0-1.939-1.488h0l-.031-.02A3.629,3.629,0,0,0,484.108,167.62Zm5.213,5.737-.852-1.874a9.975,9.975,0,0,0-.53-1,2.783,2.783,0,0,1,.26.109,3.335,3.335,0,0,1,.779.525l-.005-.008.011.008a3.9,3.9,0,0,0-.63-.752,3.646,3.646,0,0,0-.579-.42c.08,0,.153-.009.238-.009.026,0,.045.006.072.006a3.558,3.558,0,0,1,1.635,1.005l-.009-.013.014.015a3.332,3.332,0,0,0-.64-.867c-.02-.02-.043-.035-.065-.055.128.023.265.04.38.073.036.01.068.025.105.035a1.444,1.444,0,0,1,.129.074,2.3,2.3,0,0,1,.27.216,3.384,3.384,0,0,1,.474.585l0-.01.008.01a3.836,3.836,0,0,0-.217-.62,5.82,5.82,0,0,1,2.372,2.362c.151.228.3.459.458.679a8.79,8.79,0,0,0,.768,1.015,5.236,5.236,0,0,0,1.251.951,3.429,3.429,0,0,1-.507-.078,3.788,3.788,0,0,1-.98-.389l.006.009-.018-.009a3.663,3.663,0,0,0,.862.639,4.015,4.015,0,0,0,.469.2l-.015,0a2.508,2.508,0,0,1-.542.011,3.379,3.379,0,0,1-.57-.1,2.375,2.375,0,0,1-1-.556l-.014-.006a2.44,2.44,0,0,0,.877.807l.06.023a4.31,4.31,0,0,1-.506.015,1.385,1.385,0,0,1-.183-.04,2.014,2.014,0,0,1-.4-.164,2.552,2.552,0,0,1-.687-.557l.008.01-.015-.01a2.421,2.421,0,0,0,.394.639A4.164,4.164,0,0,1,489.321,173.356Zm.159-15.635h.018a3.78,3.78,0,0,0-1.044-.207,4.3,4.3,0,0,0-.507.015l.01-.008c.093-.058.2-.1.3-.154.06-.028.112-.063.174-.085a2.984,2.984,0,0,1,.555-.153,2.389,2.389,0,0,1,1.145.065c-.005,0-.013,0-.015-.009l.023.006a2.42,2.42,0,0,0-1.137-.344.615.615,0,0,0-.067,0c.149-.088.3-.163.448-.231a1.431,1.431,0,0,1,.183-.043,2.081,2.081,0,0,1,.434-.029,2.6,2.6,0,0,1,.863.2l-.009-.01.016.008a2.387,2.387,0,0,0-.63-.4,4.47,4.47,0,0,1,.979-.129A4.3,4.3,0,0,1,494,157.355c.21.177.414.358.6.54l.895.895c.287.29.533.53.764.734-.08,0-.162,0-.24-.013a3.809,3.809,0,0,1-.862-.217l.008.005-.01-.005a4.377,4.377,0,0,0,.8.482,3.685,3.685,0,0,0,.607.206c-.085.036-.171.072-.265.1a3.551,3.551,0,0,1-1.729-.358l.01.005-.015-.005a3.694,3.694,0,0,0,.86.567c.029.013.055.023.084.033a2.993,2.993,0,0,1-.361.065l-.09.005a.913.913,0,0,1-.142-.02,1.792,1.792,0,0,1-.31-.1,4.018,4.018,0,0,1-.633-.35l.01.006-.018-.006a4.621,4.621,0,0,0,.442.486,6.474,6.474,0,0,1-3.089-1.155q-.354-.218-.709-.418a10.282,10.282,0,0,0-1.134-.579,5.362,5.362,0,0,0-1.536-.323h0a3.131,3.131,0,0,1,.5-.146,3.824,3.824,0,0,1,1.044-.07ZM493,160.693a4.884,4.884,0,0,0,1.608.28,5.249,5.249,0,0,0,.585-.035h.006a.081.081,0,0,1,.024,0,6.3,6.3,0,0,0,1.746-.527l.334-.164a5.762,5.762,0,0,0,.577.422.257.257,0,0,1-.006.035,4.882,4.882,0,0,1-.22.8c-.018.055-.041.112-.063.167a5.922,5.922,0,0,1-.265.582c-.035.068-.072.138-.112.207a5.853,5.853,0,0,1-1.07,1.359c-.127.113-.254.223-.387.33l-.01.005c-.138.105-.275.2-.422.3-.008.005-.016.008-.024.013a4.019,4.019,0,0,1-.429.247.394.394,0,0,1-.055.03c-.138.068-.277.136-.424.195-.035.016-.073.025-.11.041-.128.046-.257.1-.393.137-.061.02-.122.03-.184.048-.114.03-.23.061-.343.087-.1.018-.2.028-.3.043s-.171.028-.257.038c-.188.018-.376.028-.572.028a5.531,5.531,0,0,1-.649-.038.21.21,0,0,0-.039,0c-.2-.03-.4-.063-.6-.11a5.675,5.675,0,0,1-1.534-.594,5.152,5.152,0,0,1-.591-.388c-.021-.015-.046-.03-.067-.048a5.892,5.892,0,0,1-.728-.674,8.159,8.159,0,0,0,.559-.718l.228-.366c.11.009.22.02.331.02a4.935,4.935,0,0,0,1.942-.4,6.315,6.315,0,0,0,1.609-1.059ZM490.945,166v4.193a4.928,4.928,0,0,0-1.362-.61l0,0h0l0,0v0a.126.126,0,0,0-.03-.013,5.375,5.375,0,0,0-.6-.115v-4.073a.731.731,0,0,1,.02-.136A6.453,6.453,0,0,0,490.945,166Zm20.491,8.631a1.159,1.159,0,0,1,.846-.313,3.266,3.266,0,0,1,2.092.956,3.231,3.231,0,0,1,1.1,2.075,1.09,1.09,0,0,1-.257.807,1.134,1.134,0,0,1-.847.313,3.251,3.251,0,0,1-2.087-.945C511.263,176.563,510.873,175.238,511.436,174.631Zm-1.756,1.831v2.469H492.275v-2.469h.355a.164.164,0,0,0-.04-.008c.093.013.173.033.269.043.122.01.251.018.384.018h.005l.011.005v-.005l.008.005,0-.005a7.051,7.051,0,0,0,.761-.053Zm-10.5-2.073h-.018a3.5,3.5,0,0,0,1.062.289,3.739,3.739,0,0,0,.531.019l-.009.006a3.308,3.308,0,0,1-.53.215,3.169,3.169,0,0,1-.6.109,2.357,2.357,0,0,1-1.18-.184l.01.008-.018-.005a2.322,2.322,0,0,0,1.135.464l.063.005a4.359,4.359,0,0,1-.492.186,1.571,1.571,0,0,1-.2.023,2.117,2.117,0,0,1-.456-.019,2.544,2.544,0,0,1-.863-.316l.009.013-.018-.01a2.453,2.453,0,0,0,.6.492,4.2,4.2,0,0,1-.464.03,3.675,3.675,0,0,1-1.522-.315,4.762,4.762,0,0,1-1.644-1.311c-.174-.211-.343-.423-.5-.635l-.72-1a10.56,10.56,0,0,0-.7-.876c.092.015.177.028.265.05a3.538,3.538,0,0,1,.842.354l-.008-.008.013.008a3.608,3.608,0,0,0-1.362-.906c.093-.02.193-.045.285-.061a3.562,3.562,0,0,1,1.733.638l-.01-.01.014.01a3.491,3.491,0,0,0-.774-.7c-.026-.018-.058-.033-.088-.053.13-.005.257-.005.384,0,.035.005.065.01.1.013a1.329,1.329,0,0,1,.138.04,1.812,1.812,0,0,1,.295.157,3.392,3.392,0,0,1,.566.453l-.008-.013.013.013A4.255,4.255,0,0,0,494.7,171a6.423,6.423,0,0,1,2.661,1.516l.153.123c.2.174.424.345.644.507a8.168,8.168,0,0,0,1.087.707,5.1,5.1,0,0,0,1.54.425,3.6,3.6,0,0,1-1.62.109Zm6.634-3.071a3.062,3.062,0,0,1-.267.277c-.043.041-.074.087-.119.124a3,3,0,0,1-.5.348,2.427,2.427,0,0,1-1.156.32l.013,0-.02,0a2.331,2.331,0,0,0,1.232-.048c.021-.008.041-.02.061-.028a5.2,5.2,0,0,1-.379.383c-.055.036-.113.07-.171.1a2.362,2.362,0,0,1-.427.174,2.683,2.683,0,0,1-.927.07l.015,0h-.02a2.347,2.347,0,0,0,.761.2,3.828,3.828,0,0,1-1.957.561h-.033a4.373,4.373,0,0,1-2.047-.584c-.24-.136-.472-.275-.7-.42-.241-.157-.474-.324-.7-.489l-.345-.242c-.32-.232-.595-.425-.857-.587.083-.005.166-.02.243-.025a3.58,3.58,0,0,1,.871.07l-.008,0h.015a4.029,4.029,0,0,0-.862-.338,3.205,3.205,0,0,0-.636-.1q.115-.075.241-.147a3.437,3.437,0,0,1,1.729.063l-.01-.008.014,0a3.86,3.86,0,0,0-.917-.408l-.085-.02c.107-.045.215-.088.323-.122.028-.01.058-.015.087-.025h.141a1.519,1.519,0,0,1,.307.043,4.053,4.053,0,0,1,.661.232l-.011-.008.015.005a4.467,4.467,0,0,0-.5-.393,4.383,4.383,0,0,1,.911-.025l-.013.025.233-.005c.029.005.049.005.077.01a14.4,14.4,0,0,1,1.742.393l.19.053c.262.077.53.144.8.2a7.605,7.605,0,0,0,1.283.195,5.418,5.418,0,0,0,1.574-.24,3.437,3.437,0,0,1-.434.323,3.751,3.751,0,0,1-1,.437h.013l-.015,0a3.624,3.624,0,0,0,1.084-.169,5.19,5.19,0,0,0,.484-.2Zm1.817-6.815v.01a3.268,3.268,0,0,1,0,.607,3.5,3.5,0,0,1-.331,1.165l.005-.008-.008.015a3.152,3.152,0,0,0,.6-1.052,3.768,3.768,0,0,0,.141-.572l0,.014a2.28,2.28,0,0,1,.045.36,2.636,2.636,0,0,1,.034.282,3.066,3.066,0,0,1-.067.705,2.549,2.549,0,0,1-.611,1.229l.008-.01-.011.018a2.376,2.376,0,0,0,.867-1.074.256.256,0,0,1,.024-.063,5.953,5.953,0,0,1,0,.635c-.019.078-.036.162-.059.232a2.647,2.647,0,0,1-.213.512,2.618,2.618,0,0,1-.717.8l.009-.006-.014.016a2.125,2.125,0,0,0,.753-.424c-.005.015-.008.033-.011.048a3.721,3.721,0,0,1-1.5,1.939,3.093,3.093,0,0,1-1.094.422,5.7,5.7,0,0,1-1.052.018c-.275-.025-.546-.059-.806-.1-.346-.056-.694-.127-1.024-.19l-.358-.07c-.329-.069-.619-.124-.886-.167.066-.038.129-.078.2-.114a.052.052,0,0,0,.028-.011,3.954,3.954,0,0,1,.759-.271.311.311,0,0,0,.033-.009h-.008a.015.015,0,0,0,.013-.005,4.462,4.462,0,0,0-.92.045,3.292,3.292,0,0,0-.607.156c.05-.078.1-.156.156-.232a3.561,3.561,0,0,1,1.585-.645h-.009l.015,0a3.86,3.86,0,0,0-1.008.008l-.089.015c.08-.085.163-.169.248-.245.021-.02.044-.035.067-.055a1.169,1.169,0,0,1,.127-.06,1.583,1.583,0,0,1,.3-.085,3.581,3.581,0,0,1,.705-.072l-.013,0h.018a4.913,4.913,0,0,0-.631-.151c.074-.046.151-.1.217-.134a4.768,4.768,0,0,1,.5-.138v.01l.1-.038a.742.742,0,0,1,.1-.025,10.135,10.135,0,0,0,1.8-.536,5.467,5.467,0,0,0,1.795-1.207A4.272,4.272,0,0,0,507.627,164.5Zm-3.266-1.879c.105-.25.2-.51.287-.772a6.328,6.328,0,0,0,.3-1.283,4.444,4.444,0,0,0-.22-1.637,3.7,3.7,0,0,1,.346.479,3.593,3.593,0,0,1,.41,1.071v-.011l0,.016a3.329,3.329,0,0,0-.134-1.145,4.139,4.139,0,0,0-.213-.53l0,0a2.365,2.365,0,0,1,.225.212c.065.065.125.139.187.215.006.01.016.018.024.028a3.448,3.448,0,0,1,.349.56,2.406,2.406,0,0,1,.25,1.234l0-.009a.035.035,0,0,1,0,.016,2.306,2.306,0,0,0,.035-1.279c-.005-.023-.019-.043-.024-.063a3.808,3.808,0,0,1,.363.428c.036.063.072.134.1.2a2.2,2.2,0,0,1,.138.467,2.543,2.543,0,0,1-.018.965l.005-.013v.023a2.267,2.267,0,0,0,.275-.753,3.872,3.872,0,0,1,.328,2.107l-.015.093a3.78,3.78,0,0,1-.975,1.942,6.529,6.529,0,0,1-.594.552,6.634,6.634,0,0,1-.96.644,9.073,9.073,0,0,1-.907.425c.014-.038.028-.078.045-.118a4.649,4.649,0,0,1,.365-.62l0-.008c-.225.181-.437.353-.61.516-.115.112-.216.212-.307.316-.018-.068-.035-.139-.049-.212a3.294,3.294,0,0,1,.609-1.125l-.013.008.013-.015a7.8,7.8,0,0,0-.669.572.223.223,0,0,0-.04.038,1.477,1.477,0,0,1-.019-.235c0-.02.006-.045.006-.065a.445.445,0,0,1,.036-.088,1.225,1.225,0,0,1,.13-.215.9.9,0,0,1,.075-.1c.064-.084.136-.177.217-.269.033-.043.068-.083.1-.125l-.011.005a.03.03,0,0,0,.011-.01c-.177.108-.344.22-.508.33a11.3,11.3,0,0,1,.762-2.121Q504.223,162.957,504.362,162.624Zm-2.9,1.8,0,0a.167.167,0,0,1,.018-.041,10.259,10.259,0,0,0,.459-1.005l-.005-.005a10.244,10.244,0,0,0,.231-6.745c.018.058.041.113.055.171a2.465,2.465,0,0,1,.246.432l-.005-.013.01.018a2.288,2.288,0,0,0-.215-.777,3.892,3.892,0,0,1,1.524,1.569l-.006.008.065.133.02.048a3.9,3.9,0,0,1,.267,1.99,7.449,7.449,0,0,1-.137.8c-.1.4-.21.787-.329,1.152l-.162.477c-.065.195-.122.369-.174.535-.029-.065-.058-.126-.08-.192a3.338,3.338,0,0,1-.187-.8v.013l0-.015a5.018,5.018,0,0,0-.073.877,3.913,3.913,0,0,0,.059.577c-.069-.053-.132-.107-.2-.164a3.31,3.31,0,0,1-.414-1.51l0,.013v-.02a4.285,4.285,0,0,0-.112.943c0,.028.005.055.005.08a2.164,2.164,0,0,1-.167-.191c-.065.2-.134.4-.206.595a8.658,8.658,0,0,0,.885.784l.238.173a5.145,5.145,0,0,0-.358,1.586c0,.058.013.108.016.163a3.751,3.751,0,0,0,.113.712c.028.1.05.2.073.32l.035.129a4.7,4.7,0,0,0-.626.187,4.422,4.422,0,0,0-.628.405c-.1.08-.21.153-.312.245a6.516,6.516,0,0,0-1.1,1.374l-.179.31a4.741,4.741,0,0,0-2.068.168,5.469,5.469,0,0,0-1.227.579l.013-.014v-1.525A10.493,10.493,0,0,0,501.46,164.423Zm-3.37-2.056c.036-.068.072-.133.1-.2.048-.107.1-.212.142-.319.093-.211.178-.423.257-.645.014-.04.031-.08.045-.123.088-.247.163-.5.228-.754a3.663,3.663,0,0,1,.152.9c.013.139.02.282.025.422a.07.07,0,0,1,0,.023c.005.126.008.25.008.368v.328a.477.477,0,0,0,0,.058c0,.092-.01.172-.015.225a6.087,6.087,0,0,1-.125.633,4.2,4.2,0,0,1-1.786,2.553,3.254,3.254,0,0,0-.513-1.4,6.768,6.768,0,0,0,1.242-1.626l.005,0c.013-.025.028-.055.043-.08C497.967,162.607,498.03,162.489,498.09,162.367Zm-2.327-7a2.508,2.508,0,0,1,.714.4,5.66,5.66,0,0,1,1.5,3.839c0,.151-.011.3-.024.442-.039-.029-.084-.046-.117-.073l-.169-.137a13.3,13.3,0,0,1-1.45-1.49c-.177-.207-.363-.41-.55-.61a8.629,8.629,0,0,0-.936-.877,5.212,5.212,0,0,0-1.407-.724,3.172,3.172,0,0,1,.535-.008,3.742,3.742,0,0,1,1.042.216l-.008,0,.015,0a3.675,3.675,0,0,0-.97-.484,3.958,3.958,0,0,0-.5-.121l.008,0a2.593,2.593,0,0,1,.547-.107,3.087,3.087,0,0,1,.59,0,2.413,2.413,0,0,1,1.109.392l-.01-.011a.046.046,0,0,1,.018.011,2.392,2.392,0,0,0-1.022-.656.566.566,0,0,1-.063-.015,4.568,4.568,0,0,1,.507-.1,1.337,1.337,0,0,1,.2.013A2.037,2.037,0,0,1,495.763,155.368Zm-3.528-1.5a5.741,5.741,0,0,1,2.785.735c.058.033.105.074.163.107-.083.008-.166.015-.251.028l-.014,0v0h-.008v.005a8.345,8.345,0,0,0-2,.643,3.08,3.08,0,0,0-.643.424,4.181,4.181,0,0,0-1.044-.134,5.41,5.41,0,0,0-1.824.348c-.115.043-.231.1-.35.152l-.008,0v0h-.01l0,.005a8.581,8.581,0,0,0-1.694,1.142,3.323,3.323,0,0,0-.494.56c-.033,0-.064.006-.1.009A5.749,5.749,0,0,1,492.236,153.863Zm-9.117,6.785a1.911,1.911,0,0,1,.166-.146,2.34,2.34,0,0,1,.235-.21,2.914,2.914,0,0,1,.5-.292,2.343,2.343,0,0,1,1.129-.23l-.015-.005c.005,0,.015,0,.023,0a2.371,2.371,0,0,0-1.191-.043c-.021.005-.043.015-.059.02a3.965,3.965,0,0,1,.368-.338,1.6,1.6,0,0,1,.171-.092,2.132,2.132,0,0,1,.414-.136,2.539,2.539,0,0,1,.887-.023l-.011-.008.019,0a2.5,2.5,0,0,0-.725-.232,3.871,3.871,0,0,1,1.842-.492,5.169,5.169,0,0,1,2.048.507c.247.115.493.235.729.355l1.083.585c.363.195.692.356,1.007.487-.053.015-.109.03-.164.043l-.09.025a3.538,3.538,0,0,1-.914.046l.009,0h-.011a3.779,3.779,0,0,0,.931.217,3.421,3.421,0,0,0,.68.005c-.078.064-.153.127-.226.185a3.6,3.6,0,0,1-1.841.176l.013.006-.018,0a3.5,3.5,0,0,0,1.009.295c.035,0,.066.008.1.009a3.62,3.62,0,0,1-.346.167.714.714,0,0,1-.088.033,1.21,1.21,0,0,1-.148.024,1.624,1.624,0,0,1-.339-.009,3.514,3.514,0,0,1-.718-.161l.013.008-.018-.005a4.3,4.3,0,0,0,.562.35,4.2,4.2,0,0,1-.989.118h-.005l.015-.02-.191.011a8.766,8.766,0,0,1-2.136-.417c-.261-.083-.527-.158-.792-.23a10.349,10.349,0,0,0-1.242-.27,2.614,2.614,0,0,0-.415-.03,10.024,10.024,0,0,0-1.166.123,3.9,3.9,0,0,1,.449-.274,3.8,3.8,0,0,1,1-.344h-.013l.018,0a3.738,3.738,0,0,0-1.068.074,4.316,4.316,0,0,0-.487.146Zm-3.825,4.591a3.156,3.156,0,0,1,.272-.506,2.9,2.9,0,0,1,.393-.469,2.421,2.421,0,0,1,1.024-.607h-.01l.015-.005a2.324,2.324,0,0,0-1.17.365.406.406,0,0,0-.053.038c.08-.161.169-.312.26-.456.045-.051.093-.1.141-.149a2.354,2.354,0,0,1,.363-.275,2.563,2.563,0,0,1,.861-.3h-.013l.018-.005a2.44,2.44,0,0,0-.764,0,3.7,3.7,0,0,1,2.769-1.19,6.8,6.8,0,0,1,1.012.085c.27.048.537.1.8.159l1.195.287a11.26,11.26,0,0,0,1.114.206,2.445,2.445,0,0,1-.251.139,3.546,3.546,0,0,1-.863.277h.005a.015.015,0,0,1-.013.005,4.208,4.208,0,0,0,.958-.023,3.807,3.807,0,0,0,.658-.168c-.058.078-.115.158-.174.231a3.53,3.53,0,0,1-1.724.635l.013,0-.018,0a3.407,3.407,0,0,0,1.045.028c.035,0,.064-.009.1-.014a3.142,3.142,0,0,1-.289.246c-.026.023-.055.039-.079.061-.044.018-.089.04-.134.055a2.107,2.107,0,0,1-.324.075,3.318,3.318,0,0,1-.728.023l.008,0-.013.005a4.862,4.862,0,0,0,.619.2,4.4,4.4,0,0,1-.9.35l.005-.018-.227.077a10.342,10.342,0,0,1-2,.158h-.126c-.26,0-.52.005-.784.023a7.763,7.763,0,0,0-1.286.149,4.889,4.889,0,0,0-1.45.65h-.005a3.072,3.072,0,0,1,.33-.427,3.577,3.577,0,0,1,.847-.685l-.008,0,.014-.013a3.552,3.552,0,0,0-1.007.457,3.25,3.25,0,0,0-.419.33Zm-1.16.742c.122,0,.282.008.461.018-.007.1-.01.2-.007.292-.088.079-.163.172-.246.257a3.191,3.191,0,0,0-.487-.56C477.943,165.983,478.039,165.98,478.134,165.98Zm-6.866,5.22a3.06,3.06,0,0,1-1.15.425,2.419,2.419,0,0,1-1.259-.118,2.276,2.276,0,0,0,1.224.4c.023,0,.045,0,.069,0a5.522,5.522,0,0,1-.543.232c-.07.014-.141.028-.206.034a2.318,2.318,0,0,1-.493,0,2.486,2.486,0,0,1-.911-.3,2.124,2.124,0,0,0,.635.484,4.359,4.359,0,0,1-.532.04,3.56,3.56,0,0,1-1.546-.338,4.523,4.523,0,0,1-1.6-1.364c-.172-.217-.331-.441-.484-.655l-.061-.089c-.213-.313-.436-.635-.668-.935a7.918,7.918,0,0,0-.768-.865,3.078,3.078,0,0,1,.307.05,3.5,3.5,0,0,1,.915.361,3.519,3.519,0,0,0-.817-.619,4.2,4.2,0,0,0-.705-.282c.1-.023.206-.048.329-.073a3.409,3.409,0,0,1,1.881.665,2.678,2.678,0,0,0-.8-.728.908.908,0,0,0-.092-.048,3.38,3.38,0,0,1,.437.008l.1.01a1.021,1.021,0,0,1,.138.05,1.973,1.973,0,0,1,.291.161,3.5,3.5,0,0,1,.548.474,4.191,4.191,0,0,0-.324-.567,4.056,4.056,0,0,1,.906.355l-.016.011.168.073a9.821,9.821,0,0,1,1.236.92c.141.115.281.237.424.348a7.447,7.447,0,0,0,.654.5,5.913,5.913,0,0,0,1.14.648,4.924,4.924,0,0,0,1.589.3,3.481,3.481,0,0,1-.53.169,3.613,3.613,0,0,1-1.133.079,3.524,3.524,0,0,0,1.128.2,4.353,4.353,0,0,0,.537-.035Zm2.8-2.091-.014-.006c.2.208.388.405.589.581.085.074.176.144.265.21a.341.341,0,0,0-.046.01,1.5,1.5,0,0,1-.592-.07,2.371,2.371,0,0,1-.654-.383.018.018,0,0,1,.011.01l-.016-.01a5.356,5.356,0,0,0,.614.635.117.117,0,0,0,.023.015.217.217,0,0,1-.035.015c-.074.03-.132.045-.19.065a.338.338,0,0,1-.073-.01,1.087,1.087,0,0,1-.212-.075c-.151-.075-.339-.187-.545-.313l.013.01-.015-.008.444.457c-.2.019-.464.038-.789.038a6.036,6.036,0,0,1-2.556-.489c-.25-.11-.494-.23-.727-.36-.37-.215-.73-.459-1-.649l-.345-.245c-.2-.136-.366-.257-.532-.368.066-.008.136-.02.2-.023a3.532,3.532,0,0,1,.817.058l-.005-.005h.008a5.173,5.173,0,0,0-.815-.325,3.488,3.488,0,0,0-.577-.108l.018-.016c.068-.039.137-.082.206-.131a3.443,3.443,0,0,1,1.569.038l-.009-.005.014,0a4.632,4.632,0,0,0-.877-.375c-.024-.008-.05-.013-.075-.02a2.763,2.763,0,0,1,.277-.12.552.552,0,0,1,.077-.026.937.937,0,0,1,.12-.008,1.74,1.74,0,0,1,.29.034,4.884,4.884,0,0,1,.668.178l-.005-.005.01,0a6.17,6.17,0,0,0-.527-.35,5.946,5.946,0,0,1,.916-.129l-.005.005.1-.009c.136-.009.272-.019.427-.021a4.469,4.469,0,0,1,2.115.5,5.152,5.152,0,0,1,.67.452,6.974,6.974,0,0,1,.831.827c.265.277.6.633.88.93-.093-.028-.184-.055-.275-.085a5.268,5.268,0,0,1-.668-.335Zm3.022.056a4.141,4.141,0,0,0-.043.425v.045l0,.005h0l-.005.009.005,0a5.726,5.726,0,0,0,.051.983,4.607,4.607,0,0,1-1.829-1.829c-.127-.191-.257-.385-.4-.585a6,6,0,0,0-.52-.645,4.392,4.392,0,0,0-1.038-.865,3.977,3.977,0,0,0-1.239-.467,3.061,3.061,0,0,1,.457-.123,3.1,3.1,0,0,1,1.271.038,2.885,2.885,0,0,0-1.245-.318,3.648,3.648,0,0,0-1.055.141c.109-.083.237-.173.385-.265a3.547,3.547,0,0,1,2.81.05,2.725,2.725,0,0,0-1.291-.592c-.05-.008-.107-.01-.157-.02a4.038,4.038,0,0,1,.641-.1c.088-.005.163.005.251,0a1.488,1.488,0,0,1,.159.02,2.417,2.417,0,0,1,.482.141,2.8,2.8,0,0,1,.8.516,2.409,2.409,0,0,0-.442-.594,3.745,3.745,0,0,1,1.684.774,4.038,4.038,0,0,1,1,1.285A5.041,5.041,0,0,0,477.095,169.166Zm.9,1.77a3.573,3.573,0,0,0-.182.542l0-.005a3.07,3.07,0,0,1-.038-.635,3.264,3.264,0,0,1,.1-.649,2.425,2.425,0,0,1,.615-1.111l-.01.006.013-.015a2.3,2.3,0,0,0-.86.964.411.411,0,0,1-.028.06c-.005-.156-.01-.315-.005-.463.005-.039.01-.069.013-.1a1.692,1.692,0,0,1,.055-.222,2.293,2.293,0,0,1,.2-.448,2.556,2.556,0,0,1,.645-.724l-.013.008a.058.058,0,0,0,.013-.013,2.36,2.36,0,0,0-.7.39,3.765,3.765,0,0,1,1.15-1.817,3.291,3.291,0,0,1,.493-.345c.015-.008.021-.016.031-.02a4.585,4.585,0,0,1,.462-.225,1.047,1.047,0,0,0,.1-.036c.136-.051.276-.1.408-.138.015-.005.033-.008.045-.013.147-.038.285-.07.412-.1.27-.053.537-.093.8-.124.307-.033.617-.055.92-.075l.341-.025c.393-.028.735-.055,1.05-.1-.055.059-.11.122-.168.174a3.661,3.661,0,0,1-.72.507h.005l-.009.005a4.207,4.207,0,0,0,.882-.292,3.473,3.473,0,0,0,.56-.328c-.028.085-.063.173-.1.27a3.407,3.407,0,0,1-1.372,1.053l.013,0-.018.008a3.366,3.366,0,0,0,.969-.267c.026-.011.053-.028.079-.036-.055.1-.113.208-.174.3a.646.646,0,0,1-.053.072.7.7,0,0,1-.1.088,1.565,1.565,0,0,1-.265.162,3.9,3.9,0,0,1-.653.24h.01l-.013,0a4.866,4.866,0,0,0,.635-.014,4.114,4.114,0,0,1-.907.739c-.363.222-.756.414-1.172.617-.189.089-.382.185-.566.281a7.956,7.956,0,0,0-.723.4,5.971,5.971,0,0,0-1.057.783,4.458,4.458,0,0,0-.9,1.4v-.009a3.288,3.288,0,0,1,.048-.579,3.567,3.567,0,0,1,.379-1.093l-.006.009.006-.015A3.4,3.4,0,0,0,478,170.935Zm-4.895,4.9a3.614,3.614,0,0,1-1.052,1.692,3.256,3.256,0,0,1-2.088.945,1.145,1.145,0,0,1-.85-.312,1.112,1.112,0,0,1-.252-.807,3.21,3.21,0,0,1,1.1-2.075,3.272,3.272,0,0,1,2.1-.956,1.13,1.13,0,0,1,.845.32A1.321,1.321,0,0,1,473.1,175.832Zm7.952,3.1h-6.265v-2.469h12.829v2.469Zm6.522,4.108a2.79,2.79,0,0,1-.405-.742l0,.015-.01-.018a2.607,2.607,0,0,0,.129.728,3.905,3.905,0,0,1-1.286-1.35h1.647v1.384A.192.192,0,0,1,487.576,183.039Zm1.371,1.263v-8.709s.153,0,.32,0c.11,0,.193,0,.232-.005a3.129,3.129,0,0,0,.729-.122,6.335,6.335,0,0,0,.718.474v10.98c-.674.035-1.34.094-2,.183Zm-18.463,26.917a21.75,21.75,0,1,1,21.75,21.746A21.777,21.777,0,0,1,470.483,211.218Zm17.169,23.91v1.894c-.193-.069-.394-.129-.607-.184l-.412-.04a4.948,4.948,0,0,0-1.15-1.982c-.006-.008-.011-.019-.02-.029a3.965,3.965,0,0,0-.324-.272A24.215,24.215,0,0,0,487.652,235.127Zm-8.474-.527a3.462,3.462,0,0,1-.169-.509,3.592,3.592,0,0,1-.1-1.082l0,.01V233a3.524,3.524,0,0,0-.182,1.083,4.194,4.194,0,0,0,.035.527l-.008-.008c-.02-.033-.033-.069-.05-.1a2.766,2.766,0,0,1-.212-.405,3.192,3.192,0,0,1-.172-.581,2.412,2.412,0,0,1,.059-1.2l-.009.011.005-.019a2.361,2.361,0,0,0-.339,1.182v.063a4.55,4.55,0,0,1-.236-.468,1.218,1.218,0,0,1-.048-.2,2.392,2.392,0,0,1-.024-.457,2.471,2.471,0,0,1,.221-.895l-.009.01.005-.015a2.3,2.3,0,0,0-.424.65,4.331,4.331,0,0,1-.1-.832,2.9,2.9,0,0,1,.011-.34v-.5h0a24.609,24.609,0,0,0,2.44,1.652,7.092,7.092,0,0,0-.417.853A5.04,5.04,0,0,0,479.178,234.6Zm3.56,4.558a3.239,3.239,0,0,1-.31-.4,3.846,3.846,0,0,1-.446-.961v.011l-.008-.016a3.852,3.852,0,0,0,.187,1.059,3.565,3.565,0,0,0,.194.467l-.013-.008a1.691,1.691,0,0,1-.13-.122,2.373,2.373,0,0,1-.61-.71,2.387,2.387,0,0,1-.349-1.112v.015c0-.01-.008-.015-.008-.024a2.389,2.389,0,0,0,.089,1.2.283.283,0,0,0,.021.055,4.038,4.038,0,0,1-.373-.338,1.283,1.283,0,0,1-.113-.166,1.92,1.92,0,0,1-.182-.407,2.567,2.567,0,0,1-.114-.895l-.005.013V236.8a2.456,2.456,0,0,0-.158.747,3.969,3.969,0,0,1-.277-3.96c.107-.252.23-.5.343-.734.044-.082.089-.161.134-.24a24.393,24.393,0,0,0,2.416,1.137,13.4,13.4,0,0,1-.242,1.781c-.056.265-.109.537-.152.807a8.532,8.532,0,0,0-.143,1.268A5.383,5.383,0,0,0,482.739,239.159Zm1.947,2.373a4.149,4.149,0,0,1-1.362-3.626c.016-.272.04-.542.073-.8l.168-1.216c.056-.41.1-.771.127-1.1.048.068.1.136.141.211a3.509,3.509,0,0,1,.35.826v-.011l.005.016a4.088,4.088,0,0,0-.108-.941,3.634,3.634,0,0,0-.212-.625c.082.05.162.1.248.152a3.539,3.539,0,0,1,.771,1.623v-.015l0,.018a3.562,3.562,0,0,0-.068-1.037.858.858,0,0,1-.023-.085c.09.079.184.159.269.247.024.025.041.053.067.08a.575.575,0,0,1,.065.123,1.837,1.837,0,0,1,.112.31,3.668,3.668,0,0,1,.1.725l0-.01,0,.015a3.74,3.74,0,0,0,.13-.634,6.312,6.312,0,0,1,.9,3.19l.063.811a10.434,10.434,0,0,0,.164,1.261,8.527,8.527,0,0,0,.565,1.438,4.268,4.268,0,0,1-.379-.321,3.972,3.972,0,0,1-.63-.812l.005.01-.01-.013a4.033,4.033,0,0,0,.4.969,4.218,4.218,0,0,0,.276.4.027.027,0,0,0-.019-.005c-.064-.03-.127-.073-.188-.109a2.041,2.041,0,0,1-.254-.143,2.788,2.788,0,0,1-.424-.363,2.351,2.351,0,0,1-.58-.966l0,.013-.008-.018a2.424,2.424,0,0,0,.349,1.119c.008.016.024.033.031.048a4.533,4.533,0,0,1-.43-.231.875.875,0,0,1-.137-.119,2.05,2.05,0,0,1-.261-.333,2.633,2.633,0,0,1-.321-.817v.016l-.005-.016A2.58,2.58,0,0,0,484.685,241.532ZM473.6,246.287a27.316,27.316,0,0,0,12.52-3.276c-.013,0-.013-.01-.019-.013a9.246,9.246,0,0,0,.944.32,2.981,2.981,0,0,0,.71.1,4.7,4.7,0,0,0,2.06,1.766q.156.072.328.136c.005,0,.008.008.013.008l.005.006.005-.006.176.061c-1.483,1.16-5.669,2.736-11.4,2.736a25.3,25.3,0,0,1-4.514-.387,29.423,29.423,0,0,1-10.085-3.656A19.686,19.686,0,0,0,473.6,246.287Zm17.37,17.077c-2.875-2-5.227-3.449-6.492-4.208-2.815-1.684-6.409-3.348-8.943-4.576-6.776-3.3-11.955-5.365-15.349-10.121,6.231,5.146,16.486,8.366,22.524,10.877,3.337,1.394,7.9,3.291,8.261,4.326Zm0-19.423a.028.028,0,0,0-.013-.011,4.141,4.141,0,0,0,.527.89,4.685,4.685,0,0,0,.32.353.085.085,0,0,1-.025,0c-.033-.013-.072-.033-.108-.043a2.626,2.626,0,0,1-.345-.137,2.728,2.728,0,0,1-.461-.292,2.416,2.416,0,0,1-.7-.852c0,.005.009.008.009.015-.006-.008-.014-.013-.014-.023a2.45,2.45,0,0,0,.493,1.043c.014.016.031.026.044.041a4.48,4.48,0,0,1-.449-.153,1.575,1.575,0,0,1-.148-.1,2.079,2.079,0,0,1-.3-.277,2.83,2.83,0,0,1-.434-.74l.005.015-.01-.019a2.677,2.677,0,0,0,.148.737,4.252,4.252,0,0,1-1.965-3.256l-.252-2.039a10.645,10.645,0,0,0-.192-1.107,2.536,2.536,0,0,1,.207.174,3.466,3.466,0,0,1,.577.73l0-.01.007.015a3.717,3.717,0,0,0-.369-.9,3.287,3.287,0,0,0-.4-.565c.1.025.193.048.282.08a3.6,3.6,0,0,1,1.236,1.438l0-.011.01.014a3.441,3.441,0,0,0-.348-1.012c-.019-.03-.039-.059-.055-.09a3.5,3.5,0,0,1,.348.2.9.9,0,0,1,.084.062.722.722,0,0,1,.1.11,1.434,1.434,0,0,1,.192.287,3.431,3.431,0,0,1,.282.7v-.013c0,.008,0,.013.005.013a3.782,3.782,0,0,0-.023-.653,4.283,4.283,0,0,1,.665.767h-.013l.088.123a7.246,7.246,0,0,1,.831,2.108l.2.792c.085.343.2.789.35,1.217a9.684,9.684,0,0,0,.739,1.329,3.883,3.883,0,0,1-.4-.257,4.006,4.006,0,0,1-.722-.7Zm4.947,1.958-.013-.011a4.2,4.2,0,0,0,.592.84c.107.112.217.217.335.319h-.028a2.839,2.839,0,0,1-.453-.133,3.383,3.383,0,0,1-.472-.249,2.349,2.349,0,0,1-.762-.777l.005.016a.036.036,0,0,0-.013-.016,2.454,2.454,0,0,0,.58.979c.013.013.031.025.045.04-.159-.033-.312-.068-.456-.11-.051-.026-.1-.048-.149-.077a2.337,2.337,0,0,1-.32-.249,2.581,2.581,0,0,1-.494-.684l0,.013-.012-.015a2.809,2.809,0,0,0,.216.712,4.4,4.4,0,0,1-2.3-2.966l-.317-1.125c-.078-.29-.158-.585-.245-.86a8.344,8.344,0,0,0-.383-1.072,2.25,2.25,0,0,1,.247.147,3.326,3.326,0,0,1,.7.638l-.005-.01.013.013a3.659,3.659,0,0,0-.527-.842,3.33,3.33,0,0,0-.518-.5c.1.008.2.023.315.039A3.636,3.636,0,0,1,493,241.209l0-.01.008.013a3.335,3.335,0,0,0-.518-.959c-.021-.029-.045-.055-.064-.079a3.447,3.447,0,0,1,.379.143c.036.014.066.038.1.053a1.126,1.126,0,0,1,.118.093,1.807,1.807,0,0,1,.242.262,3.433,3.433,0,0,1,.394.66l0-.008.008.01a3.784,3.784,0,0,0-.124-.65,4.343,4.343,0,0,1,.787.681l-.008,0,.082.085a6.577,6.577,0,0,1,1.113,2.037l.277.768c.141.387.291.8.464,1.173a10.161,10.161,0,0,0,.832,1.254,4.421,4.421,0,0,1-.409-.217,3.893,3.893,0,0,1-.768-.631Zm4.985,1.594-.01-.011a4.545,4.545,0,0,0,.58.809c.107.11.207.21.312.3h-.028a2.427,2.427,0,0,1-.369-.1,2.7,2.7,0,0,1-.5-.236,2.355,2.355,0,0,1-.762-.737l.008.016-.015-.021a2.538,2.538,0,0,0,.59.951.267.267,0,0,0,.043.033,4.106,4.106,0,0,1-.438-.085,1.469,1.469,0,0,1-.143-.064,2.02,2.02,0,0,1-.319-.231,2.692,2.692,0,0,1-.515-.651l0,.015-.01-.018a2.8,2.8,0,0,0,.242.7,4.535,4.535,0,0,1-2.437-2.781l-.351-.909c-.128-.343-.257-.69-.4-1.02a8.812,8.812,0,0,0-.5-1.027c.088.038.178.073.265.118a3.437,3.437,0,0,1,.774.57l0-.005.01.005a3.8,3.8,0,0,0-.619-.789,3.7,3.7,0,0,0-.584-.453c.1,0,.2,0,.312.013A3.6,3.6,0,0,1,497.692,243l-.005-.013.013.013a3.292,3.292,0,0,0-.622-.915c-.025-.029-.053-.048-.078-.074a4.06,4.06,0,0,1,.4.112c.044.013.073.033.113.048a1.066,1.066,0,0,1,.129.079,2.044,2.044,0,0,1,.272.243,3.443,3.443,0,0,1,.459.628l0-.013.008.015a3.794,3.794,0,0,0-.182-.64,4.3,4.3,0,0,1,.857.625h0l.025.021a6.048,6.048,0,0,1,1.329,2.029l.318.754c.159.383.323.778.5,1.15a9.087,9.087,0,0,0,.8,1.217,3.326,3.326,0,0,1-.371-.2,4.247,4.247,0,0,1-.753-.6Zm5.015,1.49a.021.021,0,0,0-.013-.011,4.5,4.5,0,0,0,.62.792c.108.107.225.2.34.3h-.028a2.559,2.559,0,0,1-.439-.105,2.777,2.777,0,0,1-.472-.21,2.4,2.4,0,0,1-.791-.71l.008.015a.076.076,0,0,1-.013-.018,2.48,2.48,0,0,0,.626.927c.014.015.031.023.041.036-.148-.019-.3-.041-.435-.069a1.027,1.027,0,0,1-.157-.069,2.081,2.081,0,0,1-.325-.216,2.745,2.745,0,0,1-.542-.635l0,.014-.01-.016a2.724,2.724,0,0,0,.272.69,4.134,4.134,0,0,1-1.482-.986V248.7l-.114-.109a4.772,4.772,0,0,1-.8-1.381l-.434-1.033c-.157-.382-.318-.779-.5-1.147a7.2,7.2,0,0,0-.567-1.007c.094.033.189.065.277.105a3.462,3.462,0,0,1,.825.543l-.005-.006.01.008a3.488,3.488,0,0,0-.676-.769,3.217,3.217,0,0,0-.622-.423c.09,0,.177-.011.276-.011l.053,0a3.713,3.713,0,0,1,1.757,1.071l-.005-.011a.027.027,0,0,0,.013.014,3.242,3.242,0,0,0-.689-.909c-.021-.021-.048-.04-.068-.058a3.673,3.673,0,0,1,.415.092,1.113,1.113,0,0,1,.119.045,1.334,1.334,0,0,1,.137.075,2.3,2.3,0,0,1,.3.242,3.356,3.356,0,0,1,.506.639l-.005-.011.01.013a3.244,3.244,0,0,0-.215-.645,3.364,3.364,0,0,1,.374.2,1.828,1.828,0,0,1,.345.272l.055.048c.036.033.069.072.1.1l-.016,0,.167.157a1.128,1.128,0,0,1,.108.11,7.38,7.38,0,0,1,1.1,1.747l.338.739c.172.38.348.771.54,1.14a7.751,7.751,0,0,0,.877,1.191,2.923,2.923,0,0,1-.4-.191,3.9,3.9,0,0,1-.787-.575Zm4.891,1.427-.008-.008a4.618,4.618,0,0,0,.548.818c.1.109.193.212.3.314-.015,0-.029-.006-.045-.006a2.394,2.394,0,0,1-.832-.355,2.314,2.314,0,0,1-.72-.738l0,.015-.011-.018a2.547,2.547,0,0,0,.548.945c.014.015.024.024.036.036-.172-.031-.309-.061-.418-.089a1.031,1.031,0,0,1-.139-.068,2.032,2.032,0,0,1-.3-.227,2.649,2.649,0,0,1-.487-.644l.005.016a.142.142,0,0,0-.014-.019,2.9,2.9,0,0,0,.226.689,4,4,0,0,1-1.349-.97V250.1l-.055-.06a7.063,7.063,0,0,1-1.014-1.659l-.343-.742c-.169-.377-.344-.769-.537-1.133a8.23,8.23,0,0,0-.6-.988c.1.036.186.063.279.1a3.328,3.328,0,0,1,.835.513l0-.005.011.005a3.693,3.693,0,0,0-.7-.747,3.613,3.613,0,0,0-.631-.4l.326-.02.119.04a3.575,3.575,0,0,1,1.658.966l-.008-.01.013.013a3.2,3.2,0,0,0-.71-.881c-.025-.019-.05-.04-.082-.061a3.685,3.685,0,0,1,.424.08c.043.013.079.028.124.043a1.11,1.11,0,0,1,.133.07,2.047,2.047,0,0,1,.3.23,3.179,3.179,0,0,1,.512.61v-.01l.008.013a3.225,3.225,0,0,0-.232-.635,4.279,4.279,0,0,1,.935.59h0l.043.035a5.489,5.489,0,0,1,1.391,2.019l.38.931c.129.33.26.665.4.985a8.872,8.872,0,0,0,.761,1.236c-.125-.067-.247-.133-.365-.21a4.546,4.546,0,0,1-.724-.612Zm5.235,2.528a4.384,4.384,0,0,1-.612-.694l.005.008-.008-.01a4.955,4.955,0,0,0,.405.876c.078.122.154.235.237.345a.206.206,0,0,1-.03-.005,2.32,2.32,0,0,1-.368-.176,3.011,3.011,0,0,1-.384-.285,2.329,2.329,0,0,1-.594-.812l.008.015-.014-.018a2.646,2.646,0,0,0,.4,1,.328.328,0,0,1,.03.038c-.137-.043-.262-.085-.389-.136a1.2,1.2,0,0,1-.123-.084,1.647,1.647,0,0,1-.255-.257,2.665,2.665,0,0,1-.393-.686l0,.016-.01-.019a3.118,3.118,0,0,0,.135.709A5.064,5.064,0,0,1,512,249.883l-.286-.767c-.144-.378-.3-.784-.487-1.167a7.173,7.173,0,0,0-.581-1.014c.1.036.2.067.291.112a3.48,3.48,0,0,1,.84.561l-.005-.008.011.01a3.557,3.557,0,0,0-.684-.789,3.706,3.706,0,0,0-.656-.432c.068,0,.129-.011.2-.011.04,0,.09.006.136.009a3.681,3.681,0,0,1,1.8,1.116l-.009-.009.014.011a3.232,3.232,0,0,0-.686-.935c-.03-.025-.063-.048-.093-.073a4.085,4.085,0,0,1,.448.12c.047.015.082.034.127.053a.865.865,0,0,1,.133.079,1.928,1.928,0,0,1,.3.252,3.16,3.16,0,0,1,.486.654l0-.014.008.016a3.213,3.213,0,0,0-.191-.656,4.64,4.64,0,0,1,2.166,2.882l.528,1.992a11.428,11.428,0,0,0,.542,1.314A3.811,3.811,0,0,1,516.046,252.938Zm3.835,2.662a4.966,4.966,0,0,1-.375-.8l0,.008-.008-.013a5.742,5.742,0,0,0,.138.922c.039.129.073.251.115.375l-.031-.015a1.864,1.864,0,0,1-.279-.245,2.8,2.8,0,0,1-.272-.348,2.321,2.321,0,0,1-.345-.9.036.036,0,0,0,0,.016l-.005-.019a2.738,2.738,0,0,0,.119,1.033.355.355,0,0,0,.011.038c-.114-.066-.223-.138-.326-.206l-.084-.1a1.918,1.918,0,0,1-.173-.291,2.84,2.84,0,0,1-.206-.734.028.028,0,0,1,0,.016l0-.019a3.334,3.334,0,0,0-.036.708,5.558,5.558,0,0,1-1.443-3.151l-.174-.8c-.085-.368-.195-.8-.335-1.229a6.9,6.9,0,0,0-.472-1.078,2.61,2.61,0,0,1,.287.151,3.258,3.258,0,0,1,.782.671l0-.009.011.014a3.46,3.46,0,0,0-.6-.882,3.835,3.835,0,0,0-.628-.517c.1.008.213.02.343.038a3.65,3.65,0,0,1,1.711,1.377l0-.013.011.013a3.138,3.138,0,0,0-.584-1.03c-.024-.031-.055-.056-.083-.089a4.109,4.109,0,0,1,.439.182.963.963,0,0,1,.12.072,1.048,1.048,0,0,1,.134.1,2.052,2.052,0,0,1,.269.3,3.092,3.092,0,0,1,.408.733l0-.013.008.015a2.973,2.973,0,0,0-.1-.685,4.367,4.367,0,0,1,1.7,3.274c.023.272.035.542.043.807v1.244c.02.385.082.92.134,1.359A3.441,3.441,0,0,1,519.881,255.6Zm-6.034-8.781a5.132,5.132,0,0,0-1.167-.617,19.427,19.427,0,0,0,7.441-2.117A27.166,27.166,0,0,1,513.847,246.818Zm10.033,20.939a3.278,3.278,0,0,1-2.4.575,2.2,2.2,0,0,0,1.175.247l.125-.01a3.839,3.839,0,0,1-.5.245c-.053.02-.1.025-.147.043s-.092.013-.134.018a1.811,1.811,0,0,1-.375-.01,2.986,2.986,0,0,1-.766-.19,3.363,3.363,0,0,0,.572.387,4.18,4.18,0,0,1-.82.082,5.585,5.585,0,0,1-2.641-.783l-.713-.393c-.36-.21-.734-.419-1.1-.6a7.392,7.392,0,0,0-1.423-.443,3.023,3.023,0,0,1,.449-.088,4.114,4.114,0,0,1,.979-.005,4.3,4.3,0,0,0-.974-.27,3.725,3.725,0,0,0-.454-.034.09.09,0,0,1,.024-.016,2.679,2.679,0,0,1,.932-.294,2.291,2.291,0,0,1,1.059.107,2.467,2.467,0,0,0-1.052-.378c-.02,0-.034,0-.048,0a3.813,3.813,0,0,1,.422-.215c.045-.01.093-.024.136-.031a2.108,2.108,0,0,1,.39-.016,2.776,2.776,0,0,1,.8.2,2.793,2.793,0,0,0-.6-.39,4.065,4.065,0,0,1,1.027-.152,4.377,4.377,0,0,1,.625.06l.151.029a6.8,6.8,0,0,1,1.8.713l.713.4a6.369,6.369,0,0,0,1.2.551,4.054,4.054,0,0,0,1.265.193,2.933,2.933,0,0,1-1.544.452,2.928,2.928,0,0,0,1.2.033,3.469,3.469,0,0,0,.941-.32C524.082,267.552,523.987,267.654,523.88,267.757Zm2.344-4.841-.008.011a2.977,2.977,0,0,0,.641-1.091,3.834,3.834,0,0,0,.169-1.019c.043.114.088.247.136.409a3.953,3.953,0,0,1,0,.456,1.9,1.9,0,0,1,0,.207,3.4,3.4,0,0,1-.83,2.047l.008-.005-.01.016a2.923,2.923,0,0,0,.94-1.14c.026-.057.036-.112.061-.167,0,.063,0,.128-.006.191a3.417,3.417,0,0,1-.055.389c-.005.03-.005.06-.011.09-.015.069-.036.129-.051.2s-.054.146-.085.216a3.141,3.141,0,0,1-.29.464,2.878,2.878,0,0,1-.8.712l.01,0-.015.011a2.451,2.451,0,0,0,.759-.3,3.76,3.76,0,0,1-1.629,1.6,3.163,3.163,0,0,1-1.324.3,3.64,3.64,0,0,1-1-.148,6.322,6.322,0,0,1-.758-.29c-.2-.088-.392-.192-.577-.295-.169-.093-.333-.183-.5-.265a7.315,7.315,0,0,0-1.421-.441,4.193,4.193,0,0,1,.439-.089,3.238,3.238,0,0,1,.949.008l-.005,0h.01a2.939,2.939,0,0,0-.943-.277,3.87,3.87,0,0,0-.457-.04.077.077,0,0,0,.023-.011,2.52,2.52,0,0,1,.423-.181,3.063,3.063,0,0,1,.509-.113,2,2,0,0,1,.85.146l-.015-.008.018.005a2.981,2.981,0,0,0-.86-.408c-.018,0-.035,0-.05,0l.075-.048a2.275,2.275,0,0,1,.21-.122.8.8,0,0,1,.1-.023.974.974,0,0,1,.27,0,2.8,2.8,0,0,1,.62.167l-.01-.008.016.005a5.552,5.552,0,0,0-.55-.346,2.5,2.5,0,0,1,.86-.108h.166v0c.016,0,.025,0,.04,0a5.674,5.674,0,0,0,1.667-.218,4.276,4.276,0,0,0,.779-.306,4.562,4.562,0,0,0,1.112-.767,4.244,4.244,0,0,0,.784-1.018,3.478,3.478,0,0,1,0,.428,3.207,3.207,0,0,1-.379,1.2Zm-1.84-6.082a4.859,4.859,0,0,0,.195-1.2,3.128,3.128,0,0,1,.178.315,3.287,3.287,0,0,1,.277,1.062V257l0,.014a3.136,3.136,0,0,0-.01-1.123,3.355,3.355,0,0,0-.26-.83c.087.069.179.158.279.251a3.65,3.65,0,0,1,.66,2.268l0-.013v.021a2.981,2.981,0,0,0,.127-1.255c-.006-.035-.016-.073-.021-.11a4.162,4.162,0,0,1,.267.43c.03.058.043.114.069.172s.031.1.04.148a2.071,2.071,0,0,1,.045.439,3,3,0,0,1-.13.885l.006-.008v.018a2.993,2.993,0,0,0,.34-.628,3.881,3.881,0,0,1-1.022,3.805,5.483,5.483,0,0,1-.619.518,6.087,6.087,0,0,1-1.025.576,5.558,5.558,0,0,1-1.039.4.059.059,0,0,1-.023.005c.036-.04.065-.078.1-.122l.484-.476-.008,0,.008-.008c-.249.128-.489.245-.7.335a2.451,2.451,0,0,1-.228.1c0-.021,0-.045-.005-.078a1.056,1.056,0,0,1,.183-.358,2.925,2.925,0,0,1,.54-.53l-.013.008c.005-.005.01-.008.013-.015a7.429,7.429,0,0,0-.778.434.03.03,0,0,1-.016.009,1.925,1.925,0,0,1-.014-.236.347.347,0,0,1,.023-.067,1.432,1.432,0,0,1,.134-.2,4.466,4.466,0,0,1,.451-.469l-.01.008.01-.01c-.2.1-.4.215-.577.32a10.454,10.454,0,0,1,1.2-2.774l.045-.08c.129-.24.247-.489.363-.739A8.226,8.226,0,0,0,524.384,256.834ZM520.834,251a3.651,3.651,0,0,1,1.427,1.81l0-.016.008.021a3,3,0,0,0-.346-1.181c-.021-.04-.045-.073-.067-.112a4.415,4.415,0,0,1,.413.309c.033.028.062.055.094.088a1.064,1.064,0,0,1,.118.152,2.2,2.2,0,0,1,.2.375,3.05,3.05,0,0,1,.22.848l0-.014,0,.016a2.8,2.8,0,0,0,.07-.72,4.111,4.111,0,0,1,.772,1.594,4.348,4.348,0,0,1-.1,2.181c-.084.265-.172.522-.262.768-.122.314-.257.624-.387.926l-.088.2c-.093.222-.187.515-.275.806-.055.164-.107.329-.157.477l0,.008c-.024-.11-.045-.226-.06-.339a4.886,4.886,0,0,1-.023-.863v-.005a6.092,6.092,0,0,0-.247.885c-.023.127-.04.254-.054.377v0a.13.13,0,0,0-.021-.024,1.943,1.943,0,0,1-.148-.318,2.249,2.249,0,0,1-.107-.412,2.314,2.314,0,0,1,.038-.935.054.054,0,0,1-.008.018l.005-.023a2.863,2.863,0,0,0-.3.975v.043c-.077-.105-.146-.2-.212-.3a.779.779,0,0,1-.038-.115,1.694,1.694,0,0,1-.046-.321,2.75,2.75,0,0,1,.1-.728l-.009.015,0-.02a3.509,3.509,0,0,0-.3.62,3.858,3.858,0,0,1-.32-1.352,11.141,11.141,0,0,1,.035-1.611l.023-.336c.02-.27.035-.548.039-.818a9.121,9.121,0,0,0-.039-1.29,5.793,5.793,0,0,0-.245-1.176c.09.074.185.148.265.225a3.371,3.371,0,0,1,.639.858l0-.008.008.015a3.273,3.273,0,0,0-.412-1.022,3.735,3.735,0,0,0-.542-.665C520.587,250.911,520.7,250.948,520.834,251Zm6.839-14.319-1.172-.548c-1.337-.629-2.592-1.189-3.791-1.677a34.3,34.3,0,0,0,8.932-7.605A32.266,32.266,0,0,1,527.673,236.682Z"/><path class="b" d="M483.626,201.98a2.784,2.784,0,1,0-2.79-2.786A2.791,2.791,0,0,0,483.626,201.98Z" transform="translate(8.612 12.021)"/><path class="b" d="M507.52,202.763a20.33,20.33,0,1,0-20.335,20.326A20.357,20.357,0,0,0,507.52,202.763ZM477,214.221l.028-.432a5.552,5.552,0,0,0,3.953-3.829l.369-.013c.2.1.363.128.4.093s.028-.2-.043-.413c.177.055.378-.006.651-.267l.34-.335a7.672,7.672,0,0,0,3.233,1.34l0,.5c.005.37.1.557.26.65-.195.1-.315.207-.315.252,0,.061.127.143.345.222l.247.257a5.5,5.5,0,0,0,.1,5.468l-.289.315c-.212.084-.339.181-.339.231s.127.156.339.249a1.448,1.448,0,0,0-.265,1.017l.011.895a17.608,17.608,0,0,1-10.5-4.351l.607-.594a1.448,1.448,0,0,0,.53-.907c.218.082.39.094.422.06S477.094,214.431,477,214.221Zm-.09-23.153c-.039-.038-.2-.025-.417.053a1.435,1.435,0,0,0-.547-.9l-.6-.6a17.613,17.613,0,0,1,10.683-4.517l-.011.851a1.46,1.46,0,0,0,.265,1.024c-.212.09-.339.2-.339.252s.127.148.339.23l.289.325a5.572,5.572,0,0,0-.1,5.5l-.247.267c-.218.073-.345.163-.345.217s.12.153.315.259c-.157.092-.255.277-.26.649l0,.479a7.664,7.664,0,0,0-3.429,1.487l-.319-.312c-.265-.26-.469-.324-.649-.272.065-.215.077-.373.041-.409s-.2-.008-.4.084l-.363,0a5.548,5.548,0,0,0-3.97-3.83l-.01-.432C476.928,191.26,476.949,191.1,476.914,191.068Zm20.6.423-.015.434a5.487,5.487,0,0,0-3.935,3.791l-.36.011c-.215-.1-.358-.129-.405-.092a.649.649,0,0,0,.055.409c-.182-.048-.382.008-.649.267l-.336.329a7.682,7.682,0,0,0-3.67-1.524l0-.442c0-.371-.1-.557-.26-.649.2-.105.324-.213.324-.259s-.143-.144-.351-.217l-.25-.267a5.558,5.558,0,0,0-.1-5.5l.29-.325c.211-.082.34-.179.34-.23s-.129-.162-.335-.252a1.51,1.51,0,0,0,.259-1.024l-.005-.862a17.615,17.615,0,0,1,10.916,4.532l-.645.63a1.463,1.463,0,0,0-.536.9c-.213-.075-.372-.09-.405-.06S497.43,191.288,497.514,191.491ZM497.27,214.6c.029.036.2.018.413-.061a1.454,1.454,0,0,0,.536.9l.629.624a17.624,17.624,0,0,1-10.736,4.364l.005-.906a1.5,1.5,0,0,0-.259-1.017c.206-.093.335-.2.335-.249s-.129-.147-.34-.231l-.29-.315a5.49,5.49,0,0,0,.1-5.468l.25-.257c.208-.079.351-.161.351-.222,0-.045-.124-.153-.324-.252.157-.093.257-.28.26-.65l0-.461a7.659,7.659,0,0,0,3.479-1.379l.361.353c.255.26.459.318.64.27-.065.213-.083.37-.048.41s.2,0,.4-.092l.36.008a5.5,5.5,0,0,0,3.933,3.8l.02.428C497.254,214.4,497.225,214.565,497.27,214.6ZM482.8,202.763a4.394,4.394,0,1,1,4.389,4.394A4.394,4.394,0,0,1,482.8,202.763ZM500.329,214.6l-.629-.645a1.476,1.476,0,0,0-.911-.532c.084-.212.1-.383.068-.41s-.193-.016-.4.07l-.434-.018a5.445,5.445,0,0,0-3.8-3.928v-.365c.093-.2.13-.36.085-.4-.03-.034-.186-.023-.41.049.053-.185,0-.38-.265-.648l-.329-.334a7.659,7.659,0,0,0,1.487-3.432l.506,0c.365-.005.545-.1.635-.265.1.2.212.323.262.323s.136-.131.22-.345l.265-.246a5.472,5.472,0,0,0,5.463-.1l.318.292c.076.207.174.333.23.333.038,0,.154-.126.245-.333a1.5,1.5,0,0,0,1.017.262l.9-.013A17.616,17.616,0,0,1,500.329,214.6Zm4.531-12.764-.909-.005a1.476,1.476,0,0,0-1.017.257c-.09-.2-.207-.331-.245-.331-.055,0-.153.129-.23.334l-.318.3a5.468,5.468,0,0,0-5.463-.1l-.265-.247c-.084-.213-.164-.345-.22-.345s-.159.12-.262.323c-.09-.163-.27-.262-.635-.267l-.471,0a7.664,7.664,0,0,0-1.375-3.473l.354-.359c.254-.267.318-.468.27-.65.21.07.365.085.408.05s.008-.2-.093-.4l.009-.366a5.453,5.453,0,0,0,3.8-3.931l.434-.015c.2.089.368.114.4.074s.02-.2-.063-.414a1.486,1.486,0,0,0,.91-.532l.62-.635A17.623,17.623,0,0,1,504.859,201.838ZM473.88,191.1l.595.6a1.47,1.47,0,0,0,.9.542c-.074.215-.1.38-.055.414s.191.015.4-.074l.432.023a5.538,5.538,0,0,0,3.825,3.956l.008.371c-.09.2-.122.355-.085.4a.64.64,0,0,0,.415-.048c-.055.182.01.384.265.651l.339.341a7.684,7.684,0,0,0-1.379,3.476l-.439,0c-.382.005-.567.1-.649.267-.1-.2-.217-.323-.26-.323s-.146.132-.222.345l-.262.247a5.553,5.553,0,0,0-5.508.1l-.329-.3c-.088-.2-.177-.336-.23-.334s-.158.129-.248.331a1.483,1.483,0,0,0-1.022-.257l-.863.005A17.623,17.623,0,0,1,473.88,191.1Zm-4.354,12.825.851.011a1.493,1.493,0,0,0,1.022-.262c.09.207.2.333.248.333s.142-.126.23-.333l.329-.292a5.558,5.558,0,0,0,5.508.1l.262.246c.077.215.167.345.222.345s.157-.118.26-.323c.082.164.267.26.649.265l.476.005a7.661,7.661,0,0,0,1.486,3.43l-.314.32c-.257.264-.318.467-.267.645a.623.623,0,0,0-.408-.044c-.04.036-.016.2.084.4l-.005.369a5.52,5.52,0,0,0-3.828,3.957l-.437.023c-.212-.088-.371-.112-.405-.075s-.019.2.063.419a1.464,1.464,0,0,0-.911.538l-.6.609A17.614,17.614,0,0,1,469.527,203.921Z" transform="translate(5.048 8.455)"/></g></g></svg>