<svg xmlns="http://www.w3.org/2000/svg" width="64.41" height="64.41" viewBox="0 0 64.41 64.41"><defs><style>.a{fill:#d7b0a1;}</style></defs><path class="a" d="M2612.756,1181.351a10.52,10.52,0,0,0-3.157,1.208c-.037.022-.66.027-.66.027-.058-.535-.693-.486-.833-.486a24.539,24.539,0,0,0-6.211-14.995c.1-.1.583-.513.245-.933,0,0,.443-.437.486-.448a10.506,10.506,0,0,0,3.086-1.378c2.322-2.065.626-3.55.565-3.613s-1.547-1.756-3.613.565a10.523,10.523,0,0,0-1.378,3.086c-.01.042-.447.486-.447.486-.42-.338-.834.146-.933.245a24.538,24.538,0,0,0-14.994-6.211c0-.14.049-.775-.486-.833,0,0,0-.622.027-.66a10.506,10.506,0,0,0,1.208-3.157c.181-3.1-2.068-2.953-2.155-2.954h0c-.088,0-2.336-.148-2.155,2.954a10.513,10.513,0,0,0,1.208,3.157c.023.038.027.66.027.66-.536.058-.487.693-.486.833a24.539,24.539,0,0,0-14.995,6.211c-.1-.1-.513-.583-.933-.245,0,0-.437-.443-.448-.486a10.51,10.51,0,0,0-1.378-3.086c-2.065-2.322-3.55-.626-3.613-.565s-1.756,1.547.565,3.613a10.513,10.513,0,0,0,3.087,1.378c.042.011.486.448.486.448-.338.42.147.834.245.933a24.54,24.54,0,0,0-6.211,14.995c-.14,0-.775-.049-.833.486,0,0-.622,0-.659-.027a10.518,10.518,0,0,0-3.157-1.208c-3.1-.181-2.953,2.068-2.954,2.155s-.147,2.336,2.954,2.155a10.518,10.518,0,0,0,3.157-1.208c.037-.022.659-.027.659-.027.058.536.693.486.833.486a24.541,24.541,0,0,0,6.211,14.995c-.1.1-.583.513-.245.933,0,0-.443.437-.486.447a10.52,10.52,0,0,0-3.087,1.378c-2.321,2.065-.626,3.55-.565,3.613s1.547,1.756,3.613-.565a10.51,10.51,0,0,0,1.378-3.086c.011-.042.448-.486.448-.486.42.338.834-.147.933-.245a24.541,24.541,0,0,0,14.995,6.211c0,.14-.049.775.486.833,0,0,0,.622-.027.66a10.515,10.515,0,0,0-1.208,3.157c-.181,3.1,2.067,2.953,2.155,2.954h0c.087,0,2.336.148,2.155-2.954a10.508,10.508,0,0,0-1.208-3.157c-.022-.038-.027-.66-.027-.66.535-.058.486-.693.486-.833a24.54,24.54,0,0,0,14.994-6.211c.1.1.513.583.933.245,0,0,.437.443.447.486a10.523,10.523,0,0,0,1.378,3.086c2.066,2.322,3.55.626,3.613.565s1.756-1.547-.565-3.613a10.512,10.512,0,0,0-3.086-1.378c-.043-.011-.486-.447-.486-.447.338-.42-.147-.834-.245-.933a24.54,24.54,0,0,0,6.211-14.995c.14,0,.775.049.833-.486,0,0,.622,0,.66.027a10.52,10.52,0,0,0,3.157,1.208c3.1.181,2.953-2.068,2.954-2.155S2615.858,1181.17,2612.756,1181.351Zm-28.013-8.894a18.111,18.111,0,0,0,.1-7.188,18.209,18.209,0,0,1,10.609,4.395,18.122,18.122,0,0,0-5.011,5.155c-.239.342-.578-.063-.836.317-.08.118-.159.233-.239.346a9.883,9.883,0,0,0-4.335-1.8c.024-.136.049-.273.076-.413C2585.2,1172.822,2584.671,1172.869,2584.743,1172.457Zm-2.576-7.188a18.118,18.118,0,0,0,.1,7.188c.073.411-.454.364-.367.816.027.139.052.276.076.413a9.885,9.885,0,0,0-4.335,1.8c-.079-.114-.159-.229-.239-.346-.258-.38-.6.025-.836-.317a18.119,18.119,0,0,0-5.011-5.155A18.209,18.209,0,0,1,2582.167,1165.269Zm-12.5,6.289a18.122,18.122,0,0,0,5.154,5.011c.342.239-.063.578.318.836.117.08.232.159.346.238a9.887,9.887,0,0,0-1.8,4.335l-.413-.076c-.451-.087-.4.439-.816.367a18.123,18.123,0,0,0-7.188-.1A18.208,18.208,0,0,1,2569.664,1171.558Zm-4.4,13.287a18.121,18.121,0,0,0,7.188-.1c.411-.072.365.454.816.367l.413-.076a9.887,9.887,0,0,0,1.8,4.335c-.114.079-.229.159-.346.238-.381.258.024.6-.318.836a18.116,18.116,0,0,0-5.154,5.01A18.207,18.207,0,0,1,2565.269,1184.845Zm17,9.71a18.119,18.119,0,0,0-.1,7.188,18.209,18.209,0,0,1-10.609-4.395,18.122,18.122,0,0,0,5.011-5.155c.24-.342.578.063.836-.317.08-.118.159-.233.239-.346a9.885,9.885,0,0,0,4.335,1.8q-.036.2-.076.413C2581.815,1194.191,2582.342,1194.143,2582.269,1194.555Zm1.237-8.6h0a2.445,2.445,0,1,1,0-4.89h0a2.445,2.445,0,1,1,0,4.89Zm1.339,15.792a18.117,18.117,0,0,0-.1-7.188c-.072-.411.454-.364.367-.816-.027-.139-.052-.277-.076-.413a9.88,9.88,0,0,0,4.335-1.8c.079.114.159.229.239.346.258.381.6-.025.836.317a18.125,18.125,0,0,0,5.011,5.155A18.21,18.21,0,0,1,2584.845,1201.743Zm12.5-6.289a18.114,18.114,0,0,0-5.155-5.01c-.342-.24.063-.578-.317-.836-.117-.08-.232-.159-.346-.238a9.885,9.885,0,0,0,1.8-4.335l.413.076c.451.087.4-.439.816-.367a18.12,18.12,0,0,0,7.188.1A18.2,18.2,0,0,1,2597.348,1195.454Zm-2.793-13.186c-.411.073-.365-.453-.816-.367l-.413.076a9.885,9.885,0,0,0-1.8-4.335c.114-.079.229-.159.346-.238.381-.258-.024-.6.317-.836a18.117,18.117,0,0,0,5.155-5.011,18.206,18.206,0,0,1,4.395,10.609A18.122,18.122,0,0,0,2594.555,1182.269Z" transform="translate(-2551.301 -1151.301)"/></svg>